<?xml version="1.0" standalone="no"?>
<!DOCTYPE svg PUBLIC "-//W3C//DTD SVG 1.1//EN" "http://www.w3.org/Graphics/SVG/1.1/DTD/svg11.dtd" >
<!--
2013-9-30: Created.
-->
<svg>
<metadata>
Created by iconfont
</metadata>
<defs>

<font id="iconfont" horiz-adv-x="1024" >
  <font-face
    font-family="iconfont"
    font-weight="500"
    font-stretch="normal"
    units-per-em="1024"
    ascent="896"
    descent="-128"
  />
    <missing-glyph />
    
    <glyph glyph-name="neikuangxian" unicode="&#59081;" d="M953.6 358.4H896v54.4h57.6v-54.4z m-118.4 0h-57.6v54.4h57.6v-54.4z m-118.4 0h-57.6v54.4h57.6v-54.4z m-115.2 0H544v54.4h57.6v-54.4z m-118.4 0h-57.6v54.4h57.6v-54.4z m-118.4 0H307.2v54.4h57.6v-54.4z m-118.4 0H188.8v54.4h57.6v-54.4z m-118.4 0H70.4v54.4H128v-54.4z m409.6-416h-54.4V0h54.4v-57.6z m0 118.4h-54.4v57.6h54.4v-57.6z m0 115.2h-54.4v57.6h54.4v-57.6z m0 118.4h-54.4V352h54.4v-57.6z m0 118.4h-54.4v57.6h54.4v-57.6z m0 118.4h-54.4V588.8h54.4v-57.6z m0 118.4h-54.4V707.2h54.4v-57.6z m0 115.2h-54.4V825.6h54.4v-60.8zM883.2 787.2c19.2 0 32-16 32-32v-745.6c0-19.2-16-32-32-32H137.6c-19.2 0-32 16-32 32V755.2c0 19.2 16 32 32 32h745.6m0 57.6H137.6c-51.2 0-89.6-41.6-89.6-89.6v-745.6c0-51.2 41.6-89.6 89.6-89.6h745.6c51.2 0 89.6 41.6 89.6 89.6V755.2c3.2 51.2-38.4 89.6-89.6 89.6zM896 864c51.2 0 96-44.8 96-96v-771.2c0-51.2-41.6-92.8-92.8-92.8H124.8C73.6-96 32-54.4 32-3.2V768c0 51.2 41.6 96 92.8 96H896m0 32H124.8C57.6 896 0 838.4 0 768v-771.2C0-70.4 57.6-128 124.8-128H896c70.4 0 124.8 57.6 124.8 124.8V768c3.2 70.4-54.4 128-124.8 128z"  horiz-adv-x="1024" />

    
    <glyph glyph-name="xiayiye1" unicode="&#58914;" d="M274.54414063 811.03242188c-18.74707031-19.265625-19.76396484-48.69052734-2.25878907-65.71406251l369.52646485-359.55878906-369.53173829-359.55439453c-17.50429688-17.02441406-16.48828125-46.44492187 2.25878907-65.71845703 18.74707031-19.26386719 48.13242188-21.08232422 65.62792968-4.05439453l408.21855469 397.21552734c8.77939453 8.5359375 12.89179688 20.19111328 12.45585938 32.12050782 0.44121094 11.925-3.67207031 23.58457031-12.45585938 32.12578125L340.17207031 815.1c-17.49638672 17.01914062-46.88085938 15.20068359-65.62792969-4.06757813z"  horiz-adv-x="1024" />

    
    <glyph glyph-name="zuihouyiye" unicode="&#58959;" d="M512 384L133.12 15.360000000000014c-20.48-20.48-20.48-51.2 0-71.68s51.2-20.48 71.68 0l409.6 399.36c20.48 20.48 20.48 51.2 0 71.68L204.8 814.08c-20.48 20.48-51.2 20.48-71.68 0s-20.48-51.2 0-71.68L512 384z m337.92-460.8c30.72 0 51.2 20.48 51.2 40.96V803.84c0 20.48-20.48 40.96-51.2 40.96s-51.2-20.48-51.2-40.96V-25.600000000000023c0-30.72 20.48-51.2 51.2-51.2z"  horiz-adv-x="1024" />

    
    <glyph glyph-name="shangyiye2" unicode="&#58970;" d="M712.97224209-66a47.43307969 47.43307969 0 0 0-33.20315595 14.22992373L276.58790791 350.46244131000003a47.43307969 47.43307969 0 0 0 0 67.35497255L679.76908614 820.04993145a47.62281182 47.62281182 0 0 0 67.35497343-67.35497344L377.1460373 383.66559638l369.02936075-369.02936073a47.43307969 47.43307969 0 0 0-33.20315596-80.63623565z"  horiz-adv-x="1024" />

    
    <glyph glyph-name="diyiye" unicode="&#59080;" d="M890.88 752.64c20.48 20.48 20.48 51.2 0 71.68S839.68 844.8 819.2 824.3199999999999L409.6 424.96c-20.48-20.48-20.48-51.2 0-71.68l409.6-399.36c20.48-20.48 51.2-20.48 71.68 0s20.48 51.2 0 71.68L512 384l378.88 368.64zM225.28-35.84000000000003V803.84c0 20.48-20.48 40.96-51.2 40.96s-51.2-20.48-51.2-40.96V-25.600000000000023c0-20.48 20.48-40.96 51.2-40.96s51.2 10.24 51.2 30.72z"  horiz-adv-x="1024" />

    
    <glyph glyph-name="xiantiaokuandu1" unicode="&#59075;" d="M0 176.952978h1027.210031v-218.282132H0zM0 510.796238h1027.210031v-147.661442H0zM0 767.598746h1027.210031v-70.62069H0z"  horiz-adv-x="1027" />

    
    <glyph glyph-name="tianchongyanse3" unicode="&#59076;" d="M3.2 3.2h1011.2v-128H3.2zM886.4 393.6c-19.2 51.2-44.8 99.2-76.8 144 12.8 28.8 9.6 60.8-12.8 86.4L576 870.4c-25.6 25.6-67.2 28.8-92.8 3.2l-3.2-3.2L390.4 768 278.4 889.6 256 864l112-121.6-214.4-240c-25.6-32-25.6-76.8 0-108.8l220.8-243.2c22.4-25.6 64-28.8 89.6-6.4 3.2 3.2 6.4 3.2 6.4 6.4l313.6 345.6c-22.4-35.2-38.4-73.6-48-112-6.4-25.6-9.6-54.4 0-80 12.8-48 41.6-80 80-80 32 0 57.6 25.6 73.6 64 9.6 35.2 9.6 73.6-3.2 105.6zM166.4 454.4c0 6.4 3.2 16 9.6 22.4l217.6 236.8L480 624l22.4 25.6L416 739.2l92.8 102.4c9.6 16 32 16 48 3.2l3.2-3.2 220.8-243.2c3.2-3.2 6.4-9.6 6.4-12.8L166.4 454.4z"  horiz-adv-x="1024" />

    
    <glyph glyph-name="xianxing1" unicode="&#59077;" d="M6.4 668.8V739.2h137.6v-70.4H6.4z m220.8 0V739.2h137.6v-70.4H227.2z m220.8 0V739.2h137.6v-70.4H448z m438.4 0V739.2H1024v-70.4h-137.6z m-220.8 0V739.2h137.6v-70.4h-137.6zM6.4 348.8v70.4h275.2v-70.4H6.4z m371.2 0v70.4h275.2v-70.4h-275.2z m371.2 0v70.4H1024v-70.4h-275.2zM6.4 28.8v70.4H1024v-70.4H6.4z"  horiz-adv-x="1024" />

    
    <glyph glyph-name="zitiyanse2" unicode="&#59078;" d="M0 3.2h1020.8v-128H0zM550.4 896h-105.6L169.6 166.4h102.4l80 220.8h307.2l86.4-220.8h112L550.4 896z m-169.6-428.8l80 214.4c16 44.8 28.8 92.8 38.4 140.8 16-51.2 32-102.4 51.2-150.4l76.8-201.6-246.4-3.2z"  horiz-adv-x="1024" />

    
    <glyph glyph-name="xiantiaoyanse1" unicode="&#59079;" d="M912 720L755.2 876.8c-25.6 25.6-70.4 19.2-105.6-12.8L204.8 422.4c-6.4-6.4-9.6-12.8-12.8-22.4l-38.4-233.6c-3.2-12.8 3.2-25.6 12.8-35.2 6.4-6.4 19.2-12.8 28.8-12.8h6.4l233.6 38.4c9.6 0 16 6.4 22.4 12.8l441.6 448c19.2 19.2 28.8 41.6 28.8 64 0 16-6.4 28.8-16 38.4zM406.4 236.8l-163.2-28.8 28.8 163.2 291.2 291.2 134.4-134.4-291.2-291.2zM841.6 675.2l-86.4-86.4-134.4 134.4 86.4 86.4 3.2 3.2 131.2-137.6c3.2 0 0 0 0 0zM0 9.6h1024V-128H0z"  horiz-adv-x="1024" />

    
    <glyph glyph-name="xiala" unicode="&#58880;" d="M644.49125078 446.76869989c16.53728494 12.65608521 38.89636909 24.63717947 60.24296639 20.92472808 21.26222397 2.69996457 41.34321277-10.12486817 57.79612354-20.92472807l511.47460134-396.55734523c26.1559097-20.24973715 26.1559097-52.90243699 0-72.98342578a81.58956455 81.58956455 0 0 0-94.49877145 0l-475.8688136 377.32009488L226.41856071-22.772071109999956a81.58956455 81.58956455 0 0 0-94.49877146 0c-26.1559097 20.08098879-26.1559097 52.81806363 0 72.89905244l512.57146152 396.55734438zM644.49125077 784.26431223c16.53728494 12.65608521 38.89636909 24.63717947 60.2429664 20.92472809 21.26222397 2.69996457 41.34321277-10.12486817 57.79612354-20.92472809l511.47460134-396.5573444c26.1559097-20.24973715 26.1559097-52.90243699 0-72.9834266a81.58956455 81.58956455 0 0 0-94.49877145 0l-475.8688136 377.32009488-477.21879629-377.32009487a81.58956455 81.58956455 0 0 0-94.49877146-1e-8c-26.1559097 20.08098879-26.1559097 52.81806363 0 72.89905243l512.57146153 396.55734439z"  horiz-adv-x="1434" />

    
    <glyph glyph-name="tianchongyanse1" unicode="&#59073;" d="M764.8 601.6c9.6 22.4 6.4 51.2-9.6 70.4L569.6 876.8c-22.4 22.4-54.4 22.4-76.8 3.2l-3.2-3.2-76.8-83.2L320 896l-19.2-22.4 92.8-99.2-179.2-201.6c-22.4-25.6-22.4-64 0-89.6l185.6-204.8c19.2-22.4 54.4-22.4 73.6-6.4 3.2 3.2 6.4 3.2 6.4 6.4l262.4 288c-19.2-28.8-32-60.8-38.4-92.8-6.4-22.4-6.4-44.8 0-67.2 9.6-38.4 35.2-67.2 67.2-67.2 25.6 0 48 22.4 60.8 54.4 9.6 25.6 9.6 57.6 0 83.2-19.2 44.8-41.6 86.4-67.2 124.8zM224 534.4c0 6.4 3.2 12.8 6.4 19.2L416 748.8 486.4 672l19.2 22.4-70.4 76.8L512 854.4c6.4 12.8 25.6 12.8 38.4 3.2l3.2-3.2L736 652.8c3.2-3.2 6.4-6.4 6.4-9.6L224 534.4z"  horiz-adv-x="1024" />

    
    <glyph glyph-name="zitiyanse1" unicode="&#59074;" d="M547.2 896h-92.8L214.4 262.4h89.6l70.4 192H640l73.6-192h96L547.2 896z m-147.2-374.4l70.4 185.6c12.8 38.4 25.6 80 32 121.6 12.8-44.8 28.8-89.6 44.8-131.2l67.2-176h-214.4z"  horiz-adv-x="1024" />

    
    <glyph glyph-name="tianchongyanse2" unicode="&#59172;" d="M536.32 536.3199999999999a152.9344 152.9344 0 0 0 125.3888-125.3888h257.28A408.8832 408.8832 0 0 1 536.32 793.6zM359.7312 410.9312a153.088 153.088 0 0 0 125.44 125.3888V793.6a408.9344 408.9344 0 0 1-382.72-382.6688zM661.8112 359.73119999999994a153.088 153.088 0 0 0-125.3888-125.44v-257.28a408.9344 408.9344 0 0 1 382.6688 382.72zM485.12 234.2912a153.1904 153.1904 0 0 0-125.44 125.44H102.4a408.9856 408.9856 0 0 1 382.72-382.72z"  horiz-adv-x="1024" />

    
    <glyph glyph-name="zujianku-shurukuang" unicode="&#59066;" d="M224 563.2c-19.2 0-32-16-32-38.4v-307.2c0-22.4 12.8-38.4 32-38.4 16 0 32 16 32 38.4v307.2c-3.2 22.4-16 38.4-32 38.4zM937.6 41.6H86.4C38.4 41.6 0 80 0 128V652.8C0 697.6 38.4 736 86.4 736h854.4C985.6 736 1024 697.6 1024 652.8V128c0-48-38.4-86.4-86.4-86.4zM86.4 675.2c-12.8 0-25.6-12.8-25.6-25.6v-524.8c0-12.8 12.8-25.6 25.6-25.6h854.4c12.8 0 25.6 12.8 25.6 25.6V652.8c0 12.8-12.8 25.6-25.6 25.6H86.4z"  horiz-adv-x="1024" />

    
    <glyph glyph-name="nian" unicode="&#59067;" d="M512-112H102.4c-35.2 0-67.2 12.8-89.6 38.4-9.6 12.8-12.8 28.8-12.8 41.6V691.2C0 732.8 38.4 768 86.4 771.2h86.4c12.8 0 19.2 3.2 19.2 16v32c6.4 32 25.6 44.8 57.6 44.8 25.6 0 44.8-19.2 48-48v-3.2C300.8 768 300.8 768 345.6 768H704c16 0 22.4 3.2 22.4 19.2v25.6c3.2 32 25.6 44.8 54.4 44.8 28.8 0 48-19.2 51.2-44.8 0-16-6.4-35.2 3.2-41.6 12.8-6.4 32-3.2 48-3.2h48c54.4-6.4 92.8-38.4 92.8-83.2V-32c0-48-41.6-83.2-102.4-86.4-131.2 6.4-272 6.4-409.6 6.4z m3.2 649.6H105.6c-16 0-22.4-3.2-22.4-19.2v-524.8c0-22.4 9.6-25.6 28.8-25.6h806.4c28.8 0 28.8 0 28.8 25.6V515.2c0 19.2-3.2 22.4-22.4 22.4H515.2zM457.6 176l-134.4 246.4h108.8l41.6-86.4c12.8-28.8 22.4-54.4 35.2-83.2h3.2c12.8 28.8 25.6 54.4 38.4 83.2l41.6 86.4h105.6l-134.4-246.4v-134.4h-102.4l-3.2 134.4z"  horiz-adv-x="1024" />

    
    <glyph glyph-name="nianyue" unicode="&#59068;" d="M512-112H102.4c-35.2 0-67.2 12.8-89.6 38.4-9.6 12.8-12.8 28.8-12.8 41.6V691.2C0 732.8 38.4 768 86.4 771.2h86.4c12.8 0 19.2 3.2 19.2 16v32c6.4 32 25.6 44.8 57.6 44.8 25.6 0 44.8-19.2 48-48v-3.2C300.8 768 300.8 768 345.6 768H704c16 0 22.4 3.2 22.4 19.2v25.6c3.2 32 25.6 44.8 54.4 44.8 28.8 0 48-19.2 51.2-44.8 0-16-6.4-35.2 3.2-41.6 12.8-6.4 32-3.2 48-3.2h48c54.4-6.4 92.8-38.4 92.8-83.2V-32c0-48-41.6-83.2-102.4-86.4-131.2 6.4-272 6.4-409.6 6.4z m3.2 649.6H105.6c-16 0-22.4-3.2-22.4-19.2v-524.8c0-22.4 9.6-25.6 28.8-25.6h806.4c28.8 0 28.8 0 28.8 25.6V515.2c0 19.2-3.2 22.4-22.4 22.4H515.2zM304 444.8H416l73.6-169.6c9.6-22.4 16-48 25.6-70.4h3.2c9.6 22.4 16 48 25.6 70.4l70.4 169.6h112V64h-92.8v140.8c0 38.4 9.6 92.8 12.8 128h-3.2l-38.4-89.6-64-147.2h-57.6l-64 147.2-35.2 89.6c3.2-38.4 12.8-92.8 12.8-128V64H304V444.8z"  horiz-adv-x="1024" />

    
    <glyph glyph-name="zujianku-huakuai" unicode="&#59069;" d="M0 380.8V384zM208 457.6H76.8C25.6 457.6 0 432 0 384c0-48 25.6-73.6 76.8-73.6h131.2v147.2zM1024 384v-3.2zM947.2 457.6H534.4v-147.2h412.8c51.2 0 76.8 25.6 76.8 73.6 0 48-25.6 73.6-76.8 73.6zM470.4 179.2H272c-51.2 0-92.8 41.6-96 92.8v214.4c0 51.2 41.6 96 96 96h198.4c51.2 0 92.8-41.6 96-96v-214.4c-3.2-48-44.8-92.8-96-92.8zM272 521.6c-19.2 0-32-16-32-32v-214.4c0-19.2 16-32 32-32h198.4c19.2 0 32 12.8 32 32v214.4c0 19.2-16 32-32 32H272z"  horiz-adv-x="1024" />

    
    <glyph glyph-name="zujianku-xialaanniu" unicode="&#59070;" d="M851.2 438.4c0 60.8 6.4 112-57.6 112H227.2c-64 0-57.6-51.2-57.6-112v-112c0-64-6.4-112 57.6-112h566.4c64 0 57.6 51.2 57.6 112v112z m-166.4-99.2l-92.8 83.2h185.6l-92.8-83.2zM937.6 35.2H86.4c-48 0-86.4 38.4-86.4 86.4V646.4c0 48 38.4 86.4 86.4 86.4h854.4c48 0 86.4-38.4 86.4-86.4v-524.8c-3.2-48-41.6-86.4-89.6-86.4zM86.4 672c-16 0-25.6-12.8-25.6-25.6v-524.8c0-12.8 12.8-25.6 25.6-25.6h854.4c12.8 0 25.6 12.8 25.6 25.6V646.4c0 12.8-12.8 25.6-25.6 25.6H86.4z"  horiz-adv-x="1027" />

    
    <glyph glyph-name="zujianku-anniu" unicode="&#59071;" d="M348.8 371.2c-3.2 6.4-6.4 9.6-16 19.2-3.2 3.2-9.6 6.4-16 9.6 3.2 3.2 6.4 3.2 6.4 6.4 3.2 3.2 3.2 6.4 6.4 9.6 0 3.2 3.2 6.4 3.2 16V448c0 9.6-3.2 22.4-6.4 32s-9.6 19.2-16 25.6c-6.4 6.4-16 9.6-22.4 16-6.4 3.2-19.2 3.2-25.6 3.2H182.4v-288h89.6c9.6 0 22.4 3.2 32 6.4 9.6 3.2 19.2 9.6 25.6 19.2 6.4 6.4 16 19.2 19.2 28.8 3.2 9.6 6.4 22.4 6.4 35.2 0 6.4 0 19.2-3.2 25.6 0 6.4 0 12.8-3.2 19.2z m-108.8 99.2H256c6.4 0 16-3.2 19.2-6.4 6.4-3.2 6.4-9.6 6.4-22.4 0-9.6-3.2-19.2-6.4-22.4-3.2-6.4-9.6-6.4-19.2-6.4h-16v57.6z m60.8-163.2c-3.2-3.2-3.2-6.4-6.4-9.6s-6.4-3.2-9.6-6.4c-3.2 0-6.4-3.2-16-3.2h-28.8v73.6h28.8c9.6 0 19.2-3.2 25.6-9.6 6.4-6.4 9.6-16 9.6-28.8 0-3.2-3.2-12.8-3.2-16z m480 105.6v-54.4c-6.4 6.4-9.6 19.2-19.2 28.8-6.4 9.6-16 19.2-22.4 25.6l-83.2 108.8H608v-288h57.6V416l22.4-32c6.4-9.6 16-22.4 25.6-32l96-124.8h28.8v291.2h-57.6v-105.6zM377.6 467.2h73.6v-233.6H512v233.6h73.6v54.4h-208v-54.4zM937.6 35.2H86.4c-48 0-86.4 38.4-86.4 86.4V646.4c0 48 38.4 86.4 86.4 86.4h854.4c48 0 86.4-38.4 86.4-86.4v-524.8c-3.2-48-41.6-86.4-89.6-86.4zM86.4 672c-16 0-25.6-12.8-25.6-25.6v-524.8c0-12.8 12.8-25.6 25.6-25.6h854.4c12.8 0 25.6 12.8 25.6 25.6V646.4c0 12.8-12.8 25.6-25.6 25.6H86.4z"  horiz-adv-x="1027" />

    
    <glyph glyph-name="riqi" unicode="&#59072;" d="M512-112H102.4c-35.2 0-67.2 12.8-89.6 38.4-9.6 12.8-12.8 28.8-12.8 41.6V691.2C0 732.8 38.4 768 86.4 771.2h86.4c12.8 0 19.2 3.2 19.2 16v32c6.4 32 25.6 44.8 57.6 44.8 25.6 0 44.8-19.2 48-48v-3.2C300.8 768 300.8 768 345.6 768H704c16 0 22.4 3.2 22.4 19.2v25.6c3.2 32 25.6 44.8 54.4 44.8 28.8 0 48-19.2 51.2-44.8 0-16-6.4-35.2 3.2-41.6 12.8-6.4 32-3.2 48-3.2h48c54.4-6.4 92.8-38.4 92.8-83.2V-32c0-48-41.6-83.2-102.4-86.4-131.2 6.4-272 6.4-409.6 6.4z m3.2 649.6H105.6c-16 0-22.4-3.2-22.4-19.2v-524.8c0-22.4 9.6-25.6 28.8-25.6h806.4c28.8 0 28.8 0 28.8 25.6V515.2c0 19.2-3.2 22.4-22.4 22.4H515.2zM361.6 438.4h128c137.6 0 227.2-57.6 227.2-188.8s-89.6-192-220.8-192h-131.2l-3.2 380.8z m118.4-313.6c76.8 0 128 32 128 121.6s-51.2 118.4-128 118.4h-19.2v-243.2h19.2v3.2z"  horiz-adv-x="1024" />

    
    <glyph glyph-name="caozuoxiala" unicode="&#59065;" d="M665.6 425.6l-137.6-150.4c-3.2-3.2-9.6-6.4-16-6.4s-12.8 3.2-16 6.4L358.4 425.6c-6.4 6.4-9.6 16-6.4 25.6s12.8 16 22.4 16h275.2c9.6 0 19.2-6.4 22.4-16 3.2-6.4 0-19.2-6.4-25.6z"  horiz-adv-x="1024" />

    
    <glyph glyph-name="danyuangedaxiao" unicode="&#59064;" d="M313.6 320h64v-406.4h-64zM630.4 320h64v-406.4h-64zM22.4 896h25.6c9.6 0 19.2-9.6 19.2-19.2v-419.2c0-12.8-9.6-19.2-19.2-19.2H22.4c-9.6 0-19.2 9.6-19.2 19.2V876.8C3.2 886.4 12.8 896 22.4 896zM985.6 896h25.6c9.6 0 19.2-9.6 19.2-19.2v-419.2c0-12.8-9.6-19.2-19.2-19.2h-25.6c-9.6 0-19.2 9.6-19.2 19.2V876.8c0 9.6 6.4 19.2 19.2 19.2zM966.4-128H64c-35.2 0-64 25.6-64 60.8V291.2c0 32 28.8 60.8 64 60.8H963.2c35.2 0 64-25.6 64-60.8v-361.6c3.2-32-25.6-57.6-60.8-57.6zM64 291.2v-361.6H963.2V291.2H64zM787.2 531.2l118.4 134.4M787.2 499.2c-6.4 0-16 3.2-22.4 9.6-12.8 12.8-12.8 32-3.2 44.8l121.6 134.4c12.8 12.8 32 12.8 44.8 3.2 12.8-12.8 12.8-32 3.2-44.8L809.6 512c-6.4-9.6-16-12.8-22.4-12.8zM905.6 633.6H131.2c-16 0-25.6 9.6-32 19.2-3.2 12.8 0 28.8 9.6 35.2l137.6 128c12.8 12.8 32 12.8 44.8-3.2 9.6-12.8 9.6-32-3.2-44.8L211.2 697.6h617.6l-70.4 73.6c-12.8 12.8-12.8 32 0 44.8 12.8 12.8 32 12.8 44.8 0l124.8-128c9.6-9.6 12.8-22.4 6.4-35.2s-16-19.2-28.8-19.2zM246.4 537.6L131.2 665.6M246.4 505.6c-9.6 0-16 3.2-22.4 9.6l-118.4 128c-12.8 12.8-9.6 32 3.2 44.8 12.8 12.8 32 9.6 44.8-3.2l118.4-128c12.8-12.8 9.6-32-3.2-44.8-6.4-3.2-12.8-6.4-22.4-6.4z"  horiz-adv-x="1030" />

    
    <glyph glyph-name="hebingxiangtongdanyuange" unicode="&#59059;" d="M115.2-128h345.6V896H115.2C51.2 896 0 844.8 0 780.8v-790.4c0-64 54.4-118.4 115.2-118.4z m288 57.6h-288c-32 0-57.6 25.6-57.6 57.6V780.8c0 32 25.6 57.6 57.6 57.6h288v-908.8zM419.2 496v73.6H44.8v-73.6h374.4z m0-300.8v73.6H44.8v-73.6h374.4zM908.8-128H563.2V896h345.6c64 0 115.2-51.2 115.2-115.2v-790.4c0-64-51.2-118.4-115.2-118.4z m-288 57.6h288c32 0 57.6 25.6 57.6 57.6V780.8c0 32-25.6 57.6-57.6 57.6h-288v-908.8zM608 496v73.6h374.4v-73.6H608z"  horiz-adv-x="1024" />

    
    <glyph glyph-name="quxiaohebing" unicode="&#59060;" d="M883.2 368l-124.8-128c-3.2-3.2-6.4-3.2-9.6 0l-35.2 35.2c-3.2 3.2-3.2 6.4 0 6.4l73.6 76.8c3.2 3.2 0 9.6-3.2 9.6h-246.4c-3.2 0-6.4 3.2-6.4 6.4v48c0 3.2 3.2 6.4 6.4 6.4h246.4c6.4 0 6.4 6.4 3.2 9.6L716.8 512c-3.2 3.2-3.2 3.2 0 6.4l35.2 35.2c3.2 3.2 6.4 3.2 9.6 0l156.8-156.8-35.2-28.8zM147.2 368l124.8-128c3.2-3.2 6.4-3.2 9.6 0l35.2 35.2c3.2 3.2 3.2 6.4 0 6.4l-73.6 76.8c-3.2 3.2 0 9.6 3.2 9.6h246.4c3.2 0 6.4 3.2 6.4 6.4v48c0 3.2-3.2 6.4-6.4 6.4H240c-6.4 0-6.4 6.4-3.2 9.6L313.6 512c3.2 3.2 3.2 3.2 0 6.4l-35.2 35.2c-3.2 3.2-6.4 3.2-9.6 0l-156.8-156.8 35.2-28.8zM115.2 896h345.6v-243.2h-57.6V838.4h-288c-32 0-57.6-25.6-57.6-57.6v-790.4c0-32 25.6-57.6 57.6-57.6h288V128h57.6v-256H115.2c-64 0-115.2 54.4-115.2 115.2V780.8C0 844.8 51.2 896 115.2 896zM908.8 896H563.2v-243.2h57.6V838.4h288c32 0 57.6-25.6 57.6-57.6v-790.4c0-32-25.6-57.6-57.6-57.6h-288V128h-57.6v-256h345.6c64 0 115.2 54.4 115.2 115.2V780.8c0 64-51.2 115.2-115.2 115.2z"  horiz-adv-x="1024" />

    
    <glyph glyph-name="hebingjuzhong" unicode="&#59061;" d="M0 780.8v-345.6h1024V780.8c0 64-51.2 115.2-115.2 115.2H115.2C54.4 896 0 844.8 0 780.8z m57.6-288v288c0 32 25.6 57.6 57.6 57.6h790.4c32 0 57.6-25.6 57.6-57.6v-288H57.6zM624 480h73.6V851.2h-73.6V480z m-300.8 0h73.6V851.2h-73.6V480zM476.8 272h-89.6v60.8h249.6v-60.8h-89.6v-262.4h-73.6v262.4zM1024-12.8V652.8l-57.6-57.6v-608c0-32-25.6-57.6-57.6-57.6H115.2c-32 0-57.6 25.6-57.6 57.6v608L0 652.8v-665.6c0-64 54.4-115.2 115.2-115.2h790.4c67.2 0 118.4 51.2 118.4 115.2z"  horiz-adv-x="1024" />

    
    <glyph glyph-name="hebingneirong" unicode="&#59062;" d="M115.2-124.8h345.6V896H115.2C51.2 896 0 844.8 0 780.8v-790.4c0-64 51.2-115.2 115.2-115.2z m288 57.6h-288c-32 0-57.6 25.6-57.6 57.6V780.8c0 32 25.6 57.6 57.6 57.6h288v-905.6zM416 496v73.6H44.8v-73.6H416z m0-297.6v73.6H44.8v-73.6H416zM675.2 489.6h-89.6v60.8h249.6v-60.8h-89.6v-262.4H672v262.4zM905.6 896H560v-243.2h57.6V838.4h288c32 0 57.6-25.6 57.6-57.6v-790.4c0-32-25.6-57.6-57.6-57.6h-288V128h-57.6v-256h345.6c64 0 115.2 54.4 115.2 115.2V780.8c0 64-51.2 115.2-115.2 115.2z"  horiz-adv-x="1024" />

    
    <glyph glyph-name="anhanghebing" unicode="&#59063;" d="M908.8-124.8H563.2V896h345.6c64 0 115.2-51.2 115.2-115.2v-790.4c0-64-51.2-115.2-115.2-115.2z m-288 57.6h288c32 0 57.6 25.6 57.6 57.6V780.8c0 32-25.6 57.6-57.6 57.6h-288v-905.6zM464 368l-124.8-128c-3.2-3.2-6.4-3.2-9.6 0l-35.2 35.2c-3.2 3.2-3.2 6.4 0 6.4l73.6 76.8c3.2 3.2 0 9.6-3.2 9.6H118.4c-3.2 0-6.4 3.2-6.4 6.4v48c0 3.2 3.2 6.4 6.4 6.4h252.8c6.4 0 6.4 6.4 3.2 9.6L297.6 512c-3.2 3.2-3.2 3.2 0 6.4l35.2 35.2c3.2 3.2 6.4 3.2 9.6 0l156.8-156.8-35.2-28.8zM608 496v73.6h374.4v-73.6H608z m0-297.6v73.6h374.4v-73.6H608zM115.2 896h345.6v-243.2h-57.6V838.4h-288c-32 0-57.6-25.6-57.6-57.6v-790.4c0-32 25.6-57.6 57.6-57.6h288V128h57.6v-256H115.2c-64 0-115.2 54.4-115.2 115.2V780.8C0 844.8 51.2 896 115.2 896z"  horiz-adv-x="1024" />

    
    <glyph glyph-name="jianju-da" unicode="&#59055;" d="M959.584979 131.087944H473.395257c-35.184783 0-63.972332 28.787549-63.972332 63.972332V831.584979c0 35.184783 28.787549 63.972332 63.972332 63.972332H959.584979c35.184783 0 63.972332-28.787549 63.972332-63.972332v-636.524703c0-35.184783-28.787549-63.972332-63.972332-63.972332zM473.395257 837.982213c-3.198617 0-6.397233-3.198617-6.397234-6.397234v-636.524703c0-3.198617 3.198617-6.397233 6.397234-6.397233H959.584979c3.198617 0 6.397233 3.198617 6.397234 6.397233V831.584979c0 3.198617-3.198617 6.397233-6.397234 6.397234H473.395257zM965.982213-128H466.998023c-31.986166 0-57.575099 25.588933-57.575098 57.575099v83.164031c0 31.986166 25.588933 57.575099 57.575098 57.575099h498.98419c31.986166 0 57.575099-25.588933 57.575098-57.575099v-83.164031c0-31.986166-25.588933-57.575099-57.575098-57.575099z m0 57.575099v-28.78755 28.78755z m0 83.164031H466.998023v-83.164031h498.98419v83.164031zM188.718379-128c-3.198617 0-6.397233 0-9.595849 3.198617-9.59585 3.198617-19.1917 12.794466-19.1917 25.588932L153.533597 866.769762c0 12.794466 6.397233 22.390316 19.191699 25.588933 12.794466 3.198617 22.390316 0 31.986166-9.59585l153.533597-185.519763c9.59585-12.794466 9.59585-28.787549-3.198617-38.383399-12.794466-9.59585-28.787549-9.59585-38.383399 3.198617L211.108695 786.804347l6.397234-812.448616 99.157114 115.150198c9.59585 12.794466 28.787549 12.794466 38.383399 3.198616 12.794466-9.59585 12.794466-28.787549 3.198617-38.383399l-150.33498-172.725296c-3.198617-6.397233-9.59585-9.59585-19.1917-9.59585zM28.787549 658.859683c-6.397233 0-12.794466 3.198617-19.191699 6.397233-9.59585 12.794466-12.794466 28.787549-3.198617 41.582016L159.93083 885.961462c9.59585 12.794466 28.787549 12.794466 38.383399 3.198616 12.794466-9.59585 12.794466-28.787549 3.198617-38.383399L51.177866 671.65415c-6.397233-9.59585-15.993083-12.794466-22.390317-12.794467zM182.321146-128c-6.397233 0-15.993083 3.198617-22.390316 9.59585L9.59585 51.12253c-9.59585 12.794466-9.59585 28.787549 3.198616 41.582015 12.794466 9.59585 28.787549 9.59585 41.582016-3.198616l150.33498-169.52668c9.59585-12.794466 9.59585-28.787549-3.198616-41.582016-6.397233-3.198617-12.794466-6.397233-19.1917-6.397233z"  horiz-adv-x="1024" />

    
    <glyph glyph-name="jianju-zuida" unicode="&#59056;" d="M953.627385-128H470.456177c-34.966337 0-63.575159 28.608822-63.575159 63.575159V831.984901c0 34.966337 28.608822 63.575159 63.575159 63.575159H953.627385c34.966337 0 63.575159-28.608822 63.575159-63.575159V-61.246083c0-38.145095-28.608822-66.753917-63.575159-66.753917zM470.456177 838.342417c-3.178758 0-6.357516-3.178758-6.357516-6.357516V-61.246083c0-3.178758 3.178758-6.357516 6.357516-6.357516H953.627385c3.178758 0 6.357516 3.178758 6.357516 6.357516V831.984901c0 3.178758-3.178758 6.357516-6.357516 6.357516H470.456177zM187.546719-121.642484c-3.178758 0-6.357516 0-9.536274 3.178758-9.536274 3.178758-19.072548 12.715032-19.072548 25.430063L152.580382 866.951238c0 12.715032 6.357516 22.251306 19.072547 25.430064 12.715032 3.178758 22.251306 0 31.78758-9.536274l152.580381-184.367961c9.536274-12.715032 9.536274-28.608822-3.178758-38.145095-12.715032-9.536274-28.608822-9.536274-38.145095 3.178758L209.798025 787.48229l6.357516-807.40452L314.697037 97.691814c9.536274 12.715032 28.608822 12.715032 38.145095 3.178758 12.715032-9.536274 12.715032-28.608822 3.178758-38.145095l-149.401623-171.652929c-3.178758-9.536274-9.536274-12.715032-19.072548-12.715032zM28.608822 660.331972c-6.357516 0-12.715032 3.178758-19.072548 6.357515-9.536274 9.536274-12.715032 28.608822-3.178758 41.323854L158.937897 886.023786c9.536274 12.715032 28.608822 12.715032 38.145096 3.178758 15.89379-12.715032 15.89379-28.608822 6.357516-41.323853L50.860127 669.868245c-6.357516-6.357516-15.89379-9.536274-22.251305-9.536273zM181.189203-121.642484c-6.357516 0-15.89379 3.178758-22.251306 9.536274L9.536274 56.367961c-9.536274 9.536274-9.536274 28.608822 3.178758 38.145095 12.715032 9.536274 28.608822 9.536274 41.323853-3.178757l149.401624-168.474172c9.536274-12.715032 9.536274-28.608822-3.178758-41.323853-6.357516-3.178758-12.715032-3.178758-19.072548-3.178758z"  horiz-adv-x="1024" />

    
    <glyph glyph-name="jianju-xiao" unicode="&#59057;" d="M965.982213-128H466.998023c-31.986166 0-57.575099 25.588933-57.575098 57.575099v83.164031c0 31.986166 25.588933 57.575099 57.575098 57.575099h498.98419c31.986166 0 57.575099-25.588933 57.575098-57.575099v-83.164031c0-31.986166-25.588933-57.575099-57.575098-57.575099z m0 57.575099v-28.78755 28.78755z m0 83.164031H466.998023v-83.164031h498.98419v83.164031zM965.982213 124.690711H466.998023c-31.986166 0-57.575099 25.588933-57.575098 57.575099v83.164032c0 31.986166 25.588933 57.575099 57.575098 57.575098h498.98419c31.986166 0 57.575099-25.588933 57.575098-57.575098v-83.164032c0-31.986166-25.588933-57.575099-57.575098-57.575099z m0 57.575099v-28.787549 28.787549z m0 83.164032H466.998023v-83.164032h498.98419v83.164032zM965.982213 380.580039H466.998023c-31.986166 0-57.575099 25.588933-57.575098 57.575099v83.164031c0 31.986166 25.588933 57.575099 57.575098 57.575099h498.98419c31.986166 0 57.575099-25.588933 57.575098-57.575099v-83.164031c0-31.986166-25.588933-57.575099-57.575098-57.575099z m0 57.575099v-28.787549 28.787549z m0 83.164031H466.998023v-83.164031h498.98419v83.164031zM965.982213 630.072134H466.998023c-31.986166 0-57.575099 25.588933-57.575098 57.575099V837.982213c0 31.986166 25.588933 57.575099 57.575098 57.575098h498.98419c31.986166 0 57.575099-25.588933 57.575098-57.575098v-150.33498c0-31.986166-25.588933-57.575099-57.575098-57.575099z m0 57.575099v-28.78755 28.78755z m0 150.33498H466.998023v-150.33498h498.98419V837.982213zM188.718379-128c-3.198617 0-6.397233 0-9.595849 3.198617-9.59585 3.198617-19.1917 12.794466-19.1917 25.588932L153.533597 866.769762c0 12.794466 6.397233 22.390316 19.191699 25.588933 12.794466 3.198617 22.390316 0 31.986166-9.59585l153.533597-185.519763c9.59585-12.794466 9.59585-28.787549-3.198617-38.383399-12.794466-9.59585-28.787549-9.59585-38.383399 3.198617L211.108695 786.804347l6.397234-812.448616 99.157114 115.150198c9.59585 12.794466 28.787549 12.794466 38.383399 3.198616 12.794466-9.59585 12.794466-28.787549 3.198617-38.383399l-150.33498-172.725296c-3.198617-6.397233-9.59585-9.59585-19.1917-9.59585zM28.787549 658.859683c-6.397233 0-12.794466 3.198617-19.191699 6.397233-9.59585 12.794466-12.794466 28.787549-3.198617 41.582016L159.93083 885.961462c9.59585 12.794466 28.787549 12.794466 38.383399 3.198616 12.794466-9.59585 12.794466-28.787549 3.198617-38.383399L51.177866 671.65415c-6.397233-9.59585-15.993083-12.794466-22.390317-12.794467zM182.321146-128c-6.397233 0-15.993083 3.198617-22.390316 9.59585L9.59585 51.12253c-9.59585 12.794466-9.59585 28.787549 3.198616 41.582015 12.794466 9.59585 28.787549 9.59585 41.582016-3.198616l150.33498-169.52668c9.59585-12.794466 9.59585-28.787549-3.198616-41.582016-6.397233-3.198617-12.794466-6.397233-19.1917-6.397233z"  horiz-adv-x="1024" />

    
    <glyph glyph-name="jianju-zhong" unicode="&#59058;" d="M959.584979 390.175889H473.395257c-35.184783 0-63.972332 28.787549-63.972332 63.972332V831.584979c0 35.184783 28.787549 63.972332 63.972332 63.972332H959.584979c35.184783 0 63.972332-28.787549 63.972332-63.972332v-377.436758c0-35.184783-28.787549-63.972332-63.972332-63.972332z m-486.189722 447.806324c-3.198617 0-6.397233-3.198617-6.397234-6.397234v-377.436758c0-3.198617 3.198617-6.397233 6.397234-6.397233H959.584979c3.198617 0 6.397233 3.198617 6.397234 6.397233V831.584979c0 3.198617-3.198617 6.397233-6.397234 6.397234H473.395257zM965.982213-128H466.998023c-31.986166 0-57.575099 25.588933-57.575098 57.575099v83.164031c0 31.986166 25.588933 57.575099 57.575098 57.575099h498.98419c31.986166 0 57.575099-25.588933 57.575098-57.575099v-83.164031c0-31.986166-25.588933-57.575099-57.575098-57.575099z m0 57.575099v-28.78755 28.78755z m0 83.164031H466.998023v-83.164031h498.98419v83.164031zM965.982213 131.087944H466.998023c-31.986166 0-57.575099 25.588933-57.575098 57.575099v83.164032c0 31.986166 25.588933 57.575099 57.575098 57.575099h498.98419c31.986166 0 57.575099-25.588933 57.575098-57.575099v-83.164032c0-31.986166-25.588933-57.575099-57.575098-57.575099z m0 57.575099v-28.787549 28.787549z m0 83.164032H466.998023v-83.164032h498.98419v83.164032zM188.718379-128c-3.198617 0-6.397233 0-9.595849 3.198617-9.59585 3.198617-19.1917 12.794466-19.1917 25.588932L153.533597 866.769762c0 12.794466 6.397233 22.390316 19.191699 25.588933 12.794466 3.198617 22.390316 0 31.986166-9.59585l153.533597-185.519763c9.59585-12.794466 9.59585-28.787549-3.198617-38.383399-12.794466-9.59585-28.787549-9.59585-38.383399 3.198617L211.108695 786.804347l6.397234-812.448616 99.157114 115.150198c9.59585 12.794466 28.787549 12.794466 38.383399 3.198616 12.794466-9.59585 12.794466-28.787549 3.198617-38.383399l-150.33498-172.725296c-3.198617-6.397233-9.59585-9.59585-19.1917-9.59585zM28.787549 658.859683c-6.397233 0-12.794466 3.198617-19.191699 6.397233-9.59585 12.794466-12.794466 28.787549-3.198617 41.582016L159.93083 885.961462c9.59585 12.794466 28.787549 12.794466 38.383399 3.198616 12.794466-9.59585 12.794466-28.787549 3.198617-38.383399L51.177866 671.65415c-6.397233-9.59585-15.993083-12.794466-22.390317-12.794467zM182.321146-128c-6.397233 0-15.993083 3.198617-22.390316 9.59585L9.59585 51.12253c-9.59585 12.794466-9.59585 28.787549 3.198616 41.582015 12.794466 9.59585 28.787549 9.59585 41.582016-3.198616l150.33498-169.52668c9.59585-12.794466 9.59585-28.787549-3.198616-41.582016-6.397233-3.198617-12.794466-6.397233-19.1917-6.397233z"  horiz-adv-x="1024" />

    
    <glyph glyph-name="cuxiakuangxian" unicode="&#59043;" d="M992 355.2h-64v57.6h64v-57.6z m-128 0h-64v57.6h64v-57.6z m-128 0h-64v57.6h64v-57.6z m-128 0h-64v57.6h64v-57.6z m-128 0h-64v57.6h64v-57.6z m-128 0H288v57.6h64v-57.6z m-128 0H160v57.6h64v-57.6z m-128 0H32v57.6h64v-57.6zM540.8-96h-57.6v64h57.6v-64z m0 128h-57.6v64h57.6v-64z m0 128h-57.6v64h57.6v-64z m0 128h-57.6v64h57.6v-64z m0 128h-57.6v64h57.6v-64z m0 128h-57.6V608h57.6v-64z m0 128h-57.6V736h57.6v-64z m0 128h-57.6V864h57.6v-64zM870.4 896H153.6C70.4 896 0 825.6 0 742.4v-716.8C0-57.6 70.4-128 153.6-128h716.8c83.2 0 153.6 70.4 153.6 153.6V742.4C1024 825.6 953.6 896 870.4 896z m28.8-153.6v-716.8c0-16-12.8-32-32-32H153.6c-16 0-32 12.8-32 32V742.4c0 16 12.8 32 32 32h716.8c16-3.2 28.8-16 28.8-32z"  horiz-adv-x="1024" />

    
    <glyph glyph-name="suoyoukuangxian" unicode="&#59048;" d="M544 416h416v-64H544v-416h-64V352H64v64h416V832h64v-416zM0 768c0 70.4 57.6 128 128 128h768c70.4 0 128-57.6 128-128v-768c0-70.4-57.6-128-128-128H128c-70.4 0-128 57.6-128 128V768z m64 0v-768c0-35.2 28.8-64 64-64h768c35.2 0 64 28.8 64 64V768c0 35.2-28.8 64-64 64H128c-35.2 0-64-28.8-64-64z"  horiz-adv-x="1024" />

    
    <glyph glyph-name="waicekuangxian" unicode="&#59049;" d="M992 355.2h-64v57.6h64v-57.6z m-128 0h-64v57.6h64v-57.6z m-128 0h-64v57.6h64v-57.6z m-128 0h-64v57.6h64v-57.6z m-128 0h-64v57.6h64v-57.6z m-128 0H288v57.6h64v-57.6z m-128 0H160v57.6h64v-57.6z m-128 0H32v57.6h64v-57.6zM540.8-96h-57.6v64h57.6v-64z m0 128h-57.6v64h57.6v-64z m0 128h-57.6v64h57.6v-64z m0 128h-57.6v64h57.6v-64z m0 128h-57.6v64h57.6v-64z m0 128h-57.6V608h57.6v-64z m0 128h-57.6V736h57.6v-64z m0 128h-57.6V864h57.6v-64zM896-124.8H128C60.8-124.8 3.2-70.4 3.2 0V768C3.2 835.2 57.6 892.8 128 892.8h768c67.2 0 124.8-54.4 124.8-124.8v-768c0-70.4-54.4-124.8-124.8-124.8zM128 835.2c-38.4 0-67.2-28.8-67.2-67.2v-768c0-38.4 28.8-67.2 67.2-67.2h768c38.4 0 67.2 28.8 67.2 67.2V768c0 38.4-28.8 67.2-67.2 67.2H128z"  horiz-adv-x="1024" />

    
    <glyph glyph-name="youkuangxian" unicode="&#59050;" d="M483.2-92.8h57.6v64h-57.6v-64z m0 128h57.6v64h-57.6v-64z m0 128h57.6v64h-57.6v-64z m0 128h57.6v64h-57.6v-64z m0 128h57.6v64h-57.6v-64z m0 128h57.6v64h-57.6v-64z m0 128h57.6v64h-57.6v-64z m0 128h57.6v64h-57.6v-64zM32 358.4h64V416H32v-57.6z m128 0h64V416H160v-57.6z m128 0h64V416H288v-57.6z m128 0h64V416h-64v-57.6z m128 0h64V416h-64v-57.6z m128 0h64V416h-64v-57.6z m128 0h64V416h-64v-57.6z m128 0h64V416h-64v-57.6zM604.8-118.4l-67.2-3.2V-64h64zM678.4 841.6l-67.2-3.2V896h64zM422.4 841.6l-67.2-3.2V896h67.2zM476.8-118.4l-67.2-3.2V-64h67.2zM550.4 841.6l-67.2-3.2V896h64zM60.8 771.2H3.2c0 28.8 9.6 54.4 25.6 76.8l44.8-35.2c-6.4-12.8-12.8-25.6-12.8-41.6zM940.8 886.4l57.6-44.8 22.4-80V0c0-28.8-9.6-51.2-25.6-73.6l-6.4-6.4-6.4-6.4-9.6-9.6c-3.2-3.2-6.4-3.2-6.4-6.4-3.2-3.2-9.6-6.4-16-9.6-3.2 0-3.2-3.2-6.4-3.2-6.4-3.2-12.8-3.2-16-6.4h-3.2c-9.6-3.2-16-3.2-25.6-3.2v57.6h12.8c6.4 6.4 16 9.6 22.4 12.8l3.2 3.2c3.2 0 3.2 3.2 6.4 3.2l6.4 6.4c6.4 12.8 12.8 28.8 12.8 44.8v768c3.2 16-9.6 54.4-41.6 64l-25.6 3.2h-32V896h32c22.4 0 44.8-9.6 44.8-9.6zM803.2 841.6l-67.2-3.2V896h67.2zM729.6-118.4l-67.2-3.2V-64h67.2zM857.6-118.4l-67.2-3.2V-64h64zM60.8 12.8l-57.6-3.2v67.2h57.6zM60.8 393.6l-57.6-3.2v64l57.6 3.2zM60.8 137.6H3.2v64l57.6 3.2zM60.8 265.6l-57.6-3.2v67.2h57.6zM60.8 518.4H3.2v64l57.6 3.2zM348.8-118.4l-64-3.2V-64h64zM60.8 646.4l-57.6-3.2V710.4h57.6zM70.4-32c9.6-12.8 22.4-22.4 35.2-28.8l-19.2-54.4c-25.6 9.6-48 25.6-64 51.2v3.2l48 28.8zM297.6 841.6l-67.2-3.2V896h64zM224-118.4l-67.2-3.2V-64h64zM99.2 892.8c9.6 3.2 19.2 3.2 28.8 3.2h41.6l3.2-57.6H128c-6.4 0-9.6 0-16-3.2L99.2 892.8zM940.8 819.2c12.8-12.8 19.2-28.8 19.2-48v-768c0-19.2-6.4-38.4-19.2-48v-67.2c48 19.2 80 64 80 115.2v768c0 54.4-32 99.2-80 115.2v-67.2z"  horiz-adv-x="1024" />

    
    <glyph glyph-name="wukuangxian" unicode="&#59051;" d="M3.2 156.8h57.6v-64H3.2zM60.8 355.2H64v57.6H32v-3.2H3.2v-60.8h57.6zM326.4-67.2h64v-57.6h-64zM3.2 537.6h57.6v-64H3.2zM579.2-67.2h64v-57.6h-64zM569.6 892.8h64v-57.6h-64zM316.8 892.8h64v-57.6h-64zM697.6 892.8h64v-57.6h-64zM60.8 0v32H3.2v-32c0-12.8 3.2-28.8 6.4-41.6l54.4 19.2c-3.2 6.4-3.2 16-3.2 22.4zM198.4-67.2h64v-57.6h-64zM188.8 892.8h64v-57.6h-64zM92.8-57.6l-32-48c19.2-12.8 44.8-19.2 67.2-19.2h9.6v57.6H128c-12.8 0-25.6 3.2-35.2 9.6zM3.2 284.8h57.6v-64H3.2zM963.2 483.2h57.6v-64h-57.6zM128 835.2V892.8c-28.8 0-54.4-9.6-76.8-25.6l35.2-44.8c12.8 6.4 25.6 12.8 41.6 12.8zM963.2 230.4h57.6v-64h-57.6zM963.2 736h57.6v-64h-57.6zM963.2 102.4h57.6v-64h-57.6zM963.2 611.2h57.6v-64h-57.6zM60.8 768c0 6.4 0 9.6 3.2 16L6.4 796.8c-3.2-9.6-3.2-19.2-3.2-28.8v-41.6h57.6V768zM832-67.2v-57.6h64v57.6zM825.6 892.8h64v-57.6h-64zM937.6-51.2l35.2-44.8c22.4 16 38.4 41.6 44.8 67.2l-57.6 12.8c-3.2-12.8-9.6-28.8-22.4-35.2zM3.2 665.6h57.6v-64H3.2zM707.2-67.2h64v-57.6h-64zM960 790.4l54.4 19.2c-9.6 25.6-25.6 48-51.2 64l-32-48c12.8-9.6 22.4-22.4 28.8-35.2zM243.2 412.8h60.8v-57.6H243.2zM124.8 412.8h60.8v-57.6H124.8zM841.6 412.8h60.8v-57.6h-60.8zM361.6 412.8h60.8v-57.6h-60.8zM601.6 412.8h60.8v-57.6h-60.8zM720 412.8h60.8v-57.6h-60.8zM992 412.8h-32v-57.6h3.2v-60.8h57.6v64H992zM483.2 832h57.6V864h-32V892.8h-64v-57.6h38.4zM483.2 294.4h57.6v-60.8h-57.6zM540.8 412.8h-57.6v-57.6h57.6v57.6zM483.2 534.4h57.6v-60.8h-57.6zM483.2 771.2h57.6v-60.8h-57.6zM483.2 54.4h57.6v-60.8h-57.6zM483.2 652.8h57.6v-60.8h-57.6zM483.2 176h57.6v-60.8h-57.6zM483.2-67.2h-28.8v-57.6h60.8V-96h25.6v32h-57.6z"  horiz-adv-x="1024" />

    
    <glyph glyph-name="zuokuangxian" unicode="&#59052;" d="M540.8-96h-57.6v64h57.6v-64z m0 128h-57.6v64h57.6v-64z m0 128h-57.6v64h57.6v-64z m0 128h-57.6v64h57.6v-64z m0 128h-57.6v64h57.6v-64z m0 128h-57.6V608h57.6v-64z m0 128h-57.6V736h57.6v-64z m0 128h-57.6V864h57.6v-64zM992 355.2h-64v57.6h64v-57.6z m-128 0h-64v57.6h64v-57.6z m-128 0h-64v57.6h64v-57.6z m-128 0h-64v57.6h64v-57.6z m-128 0h-64v57.6h64v-57.6z m-128 0H288v57.6h64v-57.6z m-128 0H160v57.6h64v-57.6z m-128 0H32v57.6h64v-57.6zM419.2-121.6l67.2-3.2v57.6h-64zM345.6 838.4l67.2-3.2V892.8h-64zM601.6 838.4l67.2-3.2V892.8h-67.2zM547.2-121.6l67.2-3.2v57.6h-67.2zM473.6 838.4l67.2-3.2V892.8h-64zM963.2 768h57.6c0 28.8-9.6 54.4-25.6 76.8l-44.8-35.2c6.4-12.8 12.8-25.6 12.8-41.6zM83.2 883.2L25.6 838.4 3.2 758.4v-761.6c0-28.8 9.6-51.2 25.6-73.6l6.4-6.4 6.4-6.4 9.6-9.6c3.2-3.2 6.4-3.2 6.4-6.4 3.2-3.2 9.6-6.4 16-9.6 3.2 0 3.2-3.2 6.4-3.2 6.4-3.2 12.8-3.2 16-6.4h3.2c9.6-3.2 16-3.2 25.6-3.2v57.6h-12.8c-6.4 6.4-16 9.6-22.4 12.8l-3.2 3.2c-3.2 0-3.2 3.2-6.4 3.2l-6.4 6.4c-6.4 12.8-12.8 28.8-12.8 44.8V768c-3.2 16 9.6 54.4 41.6 64l25.6 3.2h32V892.8H128c-22.4 0-44.8-9.6-44.8-9.6zM220.8 838.4l67.2-3.2V892.8H220.8zM294.4-121.6l67.2-3.2v57.6H294.4zM166.4-121.6l67.2-3.2v57.6h-64zM963.2 9.6l57.6-3.2v67.2h-57.6zM963.2 390.4l57.6-3.2v64l-57.6 3.2zM963.2 134.4h57.6v64l-57.6 3.2zM963.2 262.4l57.6-3.2v67.2h-57.6zM963.2 515.2h57.6v64l-57.6 3.2zM675.2-121.6l64-3.2v57.6h-64zM963.2 643.2l57.6-3.2V707.2h-57.6zM953.6-35.2c-9.6-12.8-22.4-22.4-35.2-28.8l19.2-54.4c25.6 9.6 48 25.6 64 51.2V-64l-48 28.8zM726.4 838.4l67.2-3.2V892.8h-64zM800-121.6l67.2-3.2v57.6h-64zM924.8 889.6c-9.6 3.2-19.2 3.2-28.8 3.2h-41.6l-3.2-57.6H896c6.4 0 9.6 0 16-3.2l12.8 57.6zM83.2 816c-16-9.6-22.4-28.8-22.4-48v-768c0-19.2 6.4-38.4 19.2-48v-67.2C32-96 0-51.2 0 0V768C0 822.4 32 867.2 80 883.2v-67.2z"  horiz-adv-x="1024" />

    
    <glyph glyph-name="shangkuangxian" unicode="&#59053;" d="M992 355.2h-64v57.6h64v-57.6z m-128 0h-64v57.6h64v-57.6z m-128 0h-64v57.6h64v-57.6z m-128 0h-64v57.6h64v-57.6z m-128 0h-64v57.6h64v-57.6z m-128 0H288v57.6h64v-57.6z m-128 0H160v57.6h64v-57.6z m-128 0H32v57.6h64v-57.6zM540.8-96h-57.6v64h57.6v-64z m0 128h-57.6v64h57.6v-64z m0 128h-57.6v64h57.6v-64z m0 128h-57.6v64h57.6v-64z m0 128h-57.6v64h57.6v-64z m0 128h-57.6V608h57.6v-64z m0 128h-57.6V736h57.6v-64z m0 128h-57.6V864h57.6v-64zM86.4-51.2L48-96c22.4-16 48-25.6 76.8-25.6V-64c-12.8-3.2-25.6 3.2-38.4 12.8zM188.8-121.6l67.2-3.2v57.6H188.8zM441.6-121.6l67.2-3.2v57.6h-64zM60.8 102.4v64l-57.6 3.2v-67.2zM313.6-121.6l67.2-3.2v57.6h-64zM60.8 675.2H3.2v-64l57.6-3.2zM569.6-121.6l67.2-3.2v57.6h-67.2zM60.8 227.2v67.2H3.2v-64zM60.8 483.2v64l-57.6 3.2v-67.2zM60.8 355.2v64l-57.6 3.2v-64zM64-16c0 6.4-3.2 9.6-3.2 16v41.6l-57.6 3.2V0c0-9.6 0-19.2 3.2-28.8l57.6 12.8zM963.2 284.8l54.4-3.2 3.2 67.2h-57.6zM963.2 409.6h54.4l3.2 64-57.6 3.2zM963.2 662.4h54.4l3.2 64-57.6 3.2zM963.2 537.6l54.4-3.2 3.2 67.2h-57.6zM963.2 156.8h54.4l3.2 64h-57.6zM944 812.8c0-3.2 3.2-3.2 3.2-6.4l3.2-3.2c3.2-3.2 3.2-6.4 6.4-9.6v-3.2c3.2-6.4 6.4-12.8 6.4-22.4h57.6c0 9.6 0 19.2-3.2 28.8 0 6.4-3.2 12.8-6.4 16 0 3.2-3.2 3.2-3.2 6.4-3.2 6.4-6.4 9.6-9.6 16-3.2 3.2-3.2 6.4-6.4 6.4l-9.6 9.6-6.4 6.4-6.4 6.4C950.4 880 924.8 889.6 896 889.6H128c-6.4 0-35.2-3.2-51.2-9.6C28.8 857.6 9.6 806.4 9.6 806.4 6.4 793.6 3.2 771.2 3.2 768v-32h57.6V768c0 3.2 3.2 19.2 3.2 19.2v6.4c12.8 19.2 16 25.6 32 32 3.2 3.2 38.4 9.6 38.4 9.6H896c16 0 32-6.4 41.6-16 3.2-3.2 6.4-3.2 6.4-6.4zM694.4-121.6l67.2-3.2v57.6h-64zM822.4-121.6l67.2-3.2v57.6h-67.2zM963.2 28.8h54.4l3.2 64-57.6 3.2zM960-22.4c-3.2-12.8-12.8-25.6-28.8-35.2l32-51.2v3.2c22.4 16 41.6 38.4 51.2 64l-54.4 19.2zM944 809.6c-9.6 16-28.8 22.4-48 22.4H128c-19.2 0-38.4-6.4-48-22.4H12.8C32 857.6 76.8 889.6 128 889.6h768c54.4 0 99.2-32 115.2-80h-67.2z"  horiz-adv-x="1024" />

    
    <glyph glyph-name="xiakuangxian" unicode="&#59054;" d="M1020.8 38.4v67.2h-57.6v-64zM1020.8 230.4l-57.6 3.2v-67.2h57.6zM761.6 892.8h-64l-3.2-54.4 67.2-3.2zM636.8 892.8h-67.2v-54.4l67.2-3.2zM889.6 892.8h-67.2v-54.4l67.2-3.2zM380.8 892.8h-64l-3.2-54.4 67.2-3.2zM1020.8 419.2v64l-57.6 3.2v-64zM1020.8 611.2l-57.6 3.2v-67.2h57.6zM1020.8 739.2h-57.6v-64l57.6-3.2zM960 790.4l54.4 19.2c-9.6 25.6-25.6 48-48 64H960l-28.8-48v-3.2c12.8-6.4 22.4-19.2 28.8-32zM963.2 294.4l57.6-3.2v67.2H992v54.4h-64v-57.6h35.2zM86.4 819.2c12.8 12.8 25.6 16 41.6 16V892.8c-25.6 0-54.4-9.6-73.6-25.6L51.2 870.4v-3.2l35.2-48zM60.8 537.6l-57.6 3.2v-67.2h54.4zM60.8 768c0 6.4 0 9.6 3.2 16L6.4 800c-3.2-12.8-3.2-22.4-3.2-32v-41.6l57.6-3.2V768zM60.8 665.6H3.2v-64l54.4-3.2zM256 892.8H188.8v-54.4l67.2-3.2zM60.8 355.2H96v57.6H3.2v-64l54.4-3.2zM60.8 284.8H3.2v-64h54.4zM60.8 156.8L3.2 160v-67.2h54.4zM672 412.8h64v-57.6h-64zM800 412.8h64v-57.6h-64zM544 412.8h64v-57.6h-64zM288 412.8h64v-57.6H288zM416 412.8h64v-57.6h-64zM160 412.8h64v-57.6H160zM483.2 352h57.6v-64h-57.6zM483.2 608h57.6v-64h-57.6zM483.2 480h57.6v-64h-57.6zM483.2 736h57.6v-64h-57.6zM483.2 800h57.6V864h-32V892.8h-64l-3.2-54.4 41.6-3.2zM483.2 96h57.6v-64h-57.6zM483.2 224h57.6v-64h-57.6zM1020.8 0h-57.6c0-6.4-6.4-32-9.6-35.2-3.2-6.4-22.4-32-54.4-32H540.8V-32h-57.6v-35.2H128c-6.4 0-9.6 0-16 3.2-3.2 0-3.2 0-6.4 3.2-3.2 0-6.4 3.2-9.6 3.2-16 9.6-28.8 25.6-32 41.6v3.2V32H3.2L0 0c0-9.6 0-16 3.2-22.4v-6.4c0-3.2 3.2-9.6 3.2-12.8v-3.2c9.6-25.6 25.6-44.8 48-60.8 6.4-3.2 12.8-6.4 16-9.6 3.2 0 3.2 0 6.4-3.2 6.4-3.2 9.6-3.2 16-3.2h6.4c6.4 0 12.8-3.2 19.2-3.2h771.2c89.6 0 121.6 73.6 121.6 76.8 3.2 3.2 9.6 38.4 9.6 48zM944-48c-12.8-12.8-28.8-19.2-48-19.2H128c-19.2 0-38.4 6.4-48 19.2H9.6C28.8-96 73.6-128 124.8-128h768c54.4 0 99.2 32 115.2 80h-64z"  horiz-adv-x="1024" />

    
    <glyph glyph-name="shanchulie" unicode="&#59046;" d="M661.432287 400.724616V851.265449c0 25.5626-19.17195 44.734551-44.734551 44.734551H405.806282c-25.5626 0-44.734551-19.17195-44.73455-44.734551V400.724616c0-25.5626 19.17195-44.734551 44.73455-44.734551h210.891454c25.5626 0 44.734551 19.17195 44.734551 44.734551z m-239.649379 12.7813V835.288824h178.938203v-421.782908H421.782908z m361.071731-479.298759V624.39737c0 15.976625 12.7813 31.953251 28.757926 31.953251h121.422352c15.976625 0 28.757926-12.7813 28.757926-28.757926V-94.550768c0-15.976625 12.7813-28.757926 28.757925-28.757926 19.17195-3.195325 31.953251 9.585975 31.953251 25.562601v782.854639c0 15.976625-12.7813 31.953251-28.757926 31.953251h-239.649379c-15.976625 0-28.757926-12.7813-28.757926-28.757926v-782.854639c0-22.367275 12.7813-31.953251 28.757926-31.953251H750.901389c15.976625 0 31.953251 12.7813 31.95325 28.757926v31.95325z m-511.252009 782.85464H31.953251C15.976625 717.061797 3.195325 704.280496 3.195325 688.303871v-782.854639c0-15.976625 12.7813-28.757926 28.757926-28.757926S60.711176-110.527393 60.711176-94.550768V624.39737c0 15.976625 12.7813 28.757926 28.757926 28.757926h121.422352c15.976625 0 28.757926-12.7813 28.757925-28.757926v-722.143463c0-15.976625 12.7813-28.757926 28.757926-28.757926s28.757926 12.7813 28.757925 28.757926v782.854639c3.195325 15.976625-9.585975 31.953251-25.5626 31.953251zM357.876407-91.355443c0 6.39065 3.195325 15.976625 6.39065 22.367275l242.844704 351.485757c9.585975 15.976625 28.757926 19.17195 41.539226 6.39065 12.7813-12.7813 15.976625-35.148576 6.39065-47.929876l-242.844704-351.485756c-9.585975-15.976625-28.757926-19.17195-41.539226-6.390651-9.585975 3.195325-12.7813 15.976625-12.7813 25.562601zM357.876407 260.130313c0-6.39065 3.195325-15.976625 6.39065-22.367275l242.844704-351.485756c9.585975-15.976625 28.757926-19.17195 41.539226-6.390651 12.7813 12.7813 15.976625 35.148576 6.39065 47.929876l-242.844704 351.485757c-9.585975 15.976625-28.757926 19.17195-41.539226 6.39065-9.585975-3.195325-12.7813-15.976625-12.7813-25.562601z"  horiz-adv-x="1024" />

    
    <glyph glyph-name="charulie" unicode="&#59047;" d="M662.4 400V851.2c0 25.6-19.2 44.8-44.8 44.8H406.4c-25.6 0-44.8-19.2-44.8-44.8V400c0-25.6 19.2-44.8 44.8-44.8h211.2c25.6 0 44.8 19.2 44.8 44.8z m-240 12.8V835.2h179.2v-422.4H422.4zM784-67.2V624c0 16 12.8 32 28.8 32h121.6c16 0 28.8-12.8 28.8-28.8V-96c0-16 12.8-28.8 28.8-28.8 19.2-3.2 32 9.6 32 25.6v784c0 16-12.8 32-28.8 32h-240c-16 0-28.8-12.8-28.8-28.8v-784c0-19.2 12.8-32 28.8-32H752c16 0 32 12.8 32 28.8v32z m-512 784H32C16 716.8 3.2 704 3.2 688v-784c0-16 12.8-28.8 28.8-28.8S60.8-112 60.8-96V624c0 16 12.8 28.8 28.8 28.8h121.6c16 0 28.8-12.8 28.8-28.8v-723.2c0-16 12.8-28.8 28.8-28.8s28.8 12.8 28.8 28.8v784c3.2 16-9.6 32-25.6 32zM480-92.8L352 44.8c-3.2 3.2-3.2 6.4 0 9.6l35.2 38.4c3.2 3.2 6.4 3.2 6.4 0l76.8-83.2c3.2-3.2 9.6 0 9.6 3.2V288c0 3.2 3.2 6.4 6.4 6.4h48c3.2 0 6.4-3.2 6.4-6.4v-275.2c0-6.4 6.4-6.4 9.6-3.2l76.8 83.2c3.2 3.2 3.2 3.2 6.4 0l35.2-38.4c3.2-3.2 3.2-6.4 0-9.6l-160-172.8-28.8 35.2z"  horiz-adv-x="1024" />

    
    <glyph glyph-name="shanchuhang1" unicode="&#59045;" d="M496 534.4H44.8c-25.6 0-44.8-19.2-44.8-44.8v-211.2c0-25.6 19.2-44.8 44.8-44.8h451.2c25.6 0 44.8 19.2 44.8 44.8v211.2c0 25.6-19.2 44.8-44.8 44.8z m-12.8-240H60.8v179.2h422.4v-179.2zM963.2 656H272c-16 0-32 12.8-32 28.8V806.4c0 16 12.8 28.8 28.8 28.8H992c16 0 28.8 12.8 28.8 28.8 3.2 19.2-9.6 32-25.6 32H211.2c-16 0-32-12.8-32-28.8v-240c0-16 12.8-28.8 28.8-28.8H992c22.4 0 32 12.8 32 28.8v-3.2c0 16-12.8 32-28.8 32h-32zM179.2 144V-96c0-16 12.8-28.8 28.8-28.8H992c16 0 28.8 12.8 28.8 28.8s-12.8 28.8-28.8 28.8H272c-16 0-28.8 12.8-28.8 28.8v121.6c0 16 12.8 28.8 28.8 28.8h723.2c16 0 28.8 12.8 28.8 28.8s-12.8 28.8-28.8 28.8H211.2c-16 3.2-32-9.6-32-25.6zM988.8 230.4c-6.4 0-16 3.2-22.4 6.4l-352 243.2c-16 9.6-19.2 28.8-6.4 41.6 12.8 12.8 35.2 16 48 6.4l352-243.2c16-9.6 19.2-28.8 6.4-41.6-3.2-9.6-16-12.8-25.6-12.8zM636.8 230.4c6.4 0 16 3.2 22.4 6.4l352 243.2c16 9.6 19.2 28.8 6.4 41.6-12.8 12.8-35.2 16-48 6.4l-352-243.2c-16-9.6-19.2-28.8-6.4-41.6 3.2-9.6 16-12.8 25.6-12.8z"  horiz-adv-x="1025" />

    
    <glyph glyph-name="charuhang" unicode="&#59044;" d="M496 534.4H44.8c-25.6 0-44.8-19.2-44.8-44.8v-211.2c0-25.6 19.2-44.8 44.8-44.8h451.2c25.6 0 44.8 19.2 44.8 44.8v211.2c0 25.6-19.2 44.8-44.8 44.8z m-12.8-240H60.8v179.2h422.4v-179.2zM963.2 656H272c-16 0-32 12.8-32 28.8V806.4c0 16 12.8 28.8 28.8 28.8H992c16 0 28.8 12.8 28.8 28.8 3.2 19.2-9.6 32-25.6 32H211.2c-16 0-32-12.8-32-28.8v-240c0-16 12.8-28.8 28.8-28.8H992c19.2 0 32 12.8 32 28.8v-3.2c0 16-12.8 32-28.8 32h-32zM179.2 144V-96c0-16 12.8-28.8 28.8-28.8H992c16 0 28.8 12.8 28.8 28.8s-12.8 28.8-28.8 28.8H272c-16 0-28.8 12.8-28.8 28.8v121.6c0 16 12.8 28.8 28.8 28.8h723.2c16 0 28.8 12.8 28.8 28.8s-12.8 28.8-28.8 28.8H211.2c-16 3.2-32-9.6-32-25.6zM988.8 352l-137.6-128c-3.2-3.2-6.4-3.2-9.6 0l-38.4 35.2c-3.2 3.2-3.2 6.4 0 6.4l83.2 76.8c3.2 3.2 0 9.6-3.2 9.6H608c-3.2 0-6.4 3.2-6.4 6.4v48c0 3.2 3.2 6.4 6.4 6.4h275.2c6.4 0 6.4 6.4 3.2 9.6l-83.2 76.8c-3.2 3.2-3.2 3.2 0 6.4l38.4 35.2c3.2 3.2 6.4 3.2 9.6 0l172.8-160-35.2-28.8z"  horiz-adv-x="1024" />

    
    <glyph glyph-name="diduanduiqi" unicode="&#59037;" d="M24.065261-48.966443h1054.926175c13.744966 0 24.053691-10.308725 24.053691-24.053691v-30.926175c0-13.744966-10.308725-24.053691-24.053691-24.053691H24.065261c-13.744966 0-24.053691 10.308725-24.053691 24.053691v30.926175c0 13.744966 10.308725 24.053691 24.053691 24.053691zM209.622308 188.134228h687.248322c13.744966 0 24.053691-10.308725 24.053692-24.053691v-30.926175c0-13.744966-10.308725-24.053691-24.053692-24.053691H209.622308c-13.744966 0-24.053691 10.308725-24.053691 24.053691v30.926175c0 13.744966 10.308725 24.053691 24.053691 24.053691zM24.065261 425.234899h1054.926175c13.744966 0 24.053691-10.308725 24.053691-24.053691v-30.926174c0-13.744966-10.308725-24.053691-24.053691-24.053692H24.065261c-13.744966 0-24.053691 10.308725-24.053691 24.053692v30.926174c0 13.744966 10.308725 24.053691 24.053691 24.053691z"  horiz-adv-x="1106" />

    
    <glyph glyph-name="chuizhijuzhong" unicode="&#59038;" d="M210.316498 189.198653h689.56229c13.791246 0 24.13468-10.343434 24.13468-24.13468v-31.030303c0-13.791246-10.343434-24.13468-24.13468-24.13468H210.316498c-13.791246 0-24.13468 10.343434-24.13468 24.13468v31.030303c0 13.791246 10.343434 24.13468 24.13468 24.13468zM24.13468 427.097643h1058.478115c13.791246 0 24.13468-10.343434 24.13468-24.13468v-31.030303c0-13.791246-10.343434-24.13468-24.13468-24.13468H24.13468c-13.791246 0-24.13468 10.343434-24.13468 24.13468v31.030303c0 13.791246 10.343434 24.13468 24.13468 24.13468zM210.316498 661.548822h689.56229c13.791246 0 24.13468-10.343434 24.13468-24.134681v-31.030303c0-13.791246-10.343434-24.13468-24.13468-24.13468H210.316498c-13.791246 0-24.13468 13.791246-24.13468 24.13468v34.478115c0 10.343434 10.343434 20.686869 24.13468 20.686869z"  horiz-adv-x="1106" />

    
    <glyph glyph-name="dingduanduiqi" unicode="&#59039;" d="M24.13468 420.20202h1058.478115c13.791246 0 24.13468-10.343434 24.13468-24.13468v-31.030303c0-13.791246-10.343434-24.13468-24.13468-24.13468H24.13468c-13.791246 0-24.13468 10.343434-24.13468 24.13468v31.030303c0 13.791246 10.343434 24.13468 24.13468 24.13468zM27.582492 892.552189h1058.478114c10.343434 0 20.686869-10.343434 20.686869-24.134681v-31.030303c0-13.791246-10.343434-24.13468-24.13468-24.13468H27.582492c-13.791246 0-24.13468 10.343434-24.134681 24.13468V868.417508C3.447811 882.208754 13.791246 892.552189 27.582492 892.552189zM210.316498 654.653199h689.56229c13.791246 0 24.13468-10.343434 24.13468-24.13468v-31.030304c0-13.791246-10.343434-24.13468-24.13468-24.13468H210.316498c-13.791246 0-24.13468 13.791246-24.13468 24.13468v34.478115c0 13.791246 10.343434 20.686869 24.13468 20.686869z"  horiz-adv-x="1106" />

    
    <glyph glyph-name="shuipingjuzhong" unicode="&#59040;" d="M24.065261-52.402685h1054.926175c13.744966 0 24.053691-10.308725 24.053691-24.053691v-27.489933c0-13.744966-10.308725-24.053691-24.053691-24.053691H24.065261c-13.744966 0-24.053691 10.308725-24.053691 24.053691v30.926175c0 10.308725 10.308725 20.61745 24.053691 20.617449zM209.622308 188.134228h687.248322c13.744966 0 24.053691-10.308725 24.053692-24.053691v-30.926175c0-13.744966-10.308725-24.053691-24.053692-24.053691H209.622308c-13.744966 0-24.053691 10.308725-24.053691 24.053691v30.926175c0 13.744966 10.308725 24.053691 24.053691 24.053691zM24.065261 425.234899h1054.926175c13.744966 0 24.053691-10.308725 24.053691-24.053691v-30.926174c0-13.744966-10.308725-24.053691-24.053691-24.053692H24.065261c-13.744966 0-24.053691 10.308725-24.053691 24.053692v30.926174c0 13.744966 10.308725 24.053691 24.053691 24.053691zM27.501503 896h1054.926174c10.308725 0 20.61745-10.308725 20.61745-24.053691v-30.926175c0-13.744966-10.308725-24.053691-24.053691-24.053691H27.501503c-13.744966 0-24.053691 10.308725-24.053692 24.053691V871.946309c0 13.744966 10.308725 24.053691 24.053692 24.053691zM209.622308 658.899329h687.248322c13.744966 0 24.053691-10.308725 24.053692-24.053691v-30.926175c0-13.744966-10.308725-24.053691-24.053692-24.053691H209.622308c-13.744966 0-24.053691 13.744966-24.053691 24.053691v34.362416c0 10.308725 10.308725 20.61745 24.053691 20.61745z"  horiz-adv-x="1106" />

    
    <glyph glyph-name="zuoduiqi" unicode="&#59041;" d="M24.053691-48.966443h1054.926175c13.744966 0 24.053691-10.308725 24.053691-24.053691v-30.926175c0-13.744966-10.308725-24.053691-24.053691-24.053691H24.053691c-13.744966 0-24.053691 10.308725-24.053691 24.053691v30.926175c0 13.744966 10.308725 24.053691 24.053691 24.053691zM24.053691 188.134228h687.248322c13.744966 0 24.053691-10.308725 24.053692-24.053691v-30.926175c0-13.744966-10.308725-24.053691-24.053692-24.053691H24.053691c-13.744966 0-24.053691 10.308725-24.053691 24.053691v30.926175c0 13.744966 10.308725 24.053691 24.053691 24.053691zM24.053691 425.234899h1054.926175c13.744966 0 24.053691-10.308725 24.053691-24.053691v-30.926174c0-13.744966-10.308725-24.053691-24.053691-24.053692H24.053691c-13.744966 0-24.053691 10.308725-24.053691 24.053692v30.926174c0 13.744966 10.308725 24.053691 24.053691 24.053691zM24.053691 896h1054.926175c10.308725 0 20.61745-10.308725 20.617449-24.053691v-30.926175c0-13.744966-10.308725-24.053691-24.053691-24.053691H24.053691C10.308725 816.966443 0 827.275168 0 841.020134V871.946309C0 885.691275 10.308725 896 24.053691 896zM24.053691 658.899329h687.248322c13.744966 0 24.053691-10.308725 24.053692-24.053691v-30.926175c0-13.744966-10.308725-24.053691-24.053692-24.053691H24.053691c-13.744966 0-24.053691 13.744966-24.053691 24.053691v34.362416c0 10.308725 10.308725 20.61745 24.053691 20.61745z"  horiz-adv-x="1106" />

    
    <glyph glyph-name="youduiqi" unicode="&#59042;" d="M1078.979866-48.966443H24.053691c-13.744966 0-24.053691-10.308725-24.053691-24.053691v-30.926175c0-13.744966 10.308725-24.053691 24.053691-24.053691h1054.926175c13.744966 0 24.053691 10.308725 24.053691 24.053691v30.926175c0 13.744966-10.308725 24.053691-24.053691 24.053691zM1078.979866 188.134228h-687.248322c-13.744966 0-24.053691-10.308725-24.053692-24.053691v-30.926175c0-13.744966 10.308725-24.053691 24.053692-24.053691h687.248322c13.744966 0 24.053691 10.308725 24.053691 24.053691v30.926175c0 13.744966-10.308725 24.053691-24.053691 24.053691zM1078.979866 425.234899H24.053691c-13.744966 0-24.053691-10.308725-24.053691-24.053691v-30.926174c0-13.744966 10.308725-24.053691 24.053691-24.053692h1054.926175c13.744966 0 24.053691 10.308725 24.053691 24.053692v30.926174c0 13.744966-10.308725 24.053691-24.053691 24.053691zM1078.979866 896H24.053691C13.744966 896 3.436242 885.691275 3.436242 871.946309v-30.926175c0-13.744966 10.308725-24.053691 24.053691-24.053691h1051.489933c13.744966 0 24.053691 10.308725 24.053691 24.053691V871.946309c0 13.744966-10.308725 24.053691-24.053691 24.053691zM1078.979866 658.899329h-687.248322c-13.744966 0-24.053691-10.308725-24.053692-24.053691v-30.926175c0-13.744966 10.308725-24.053691 24.053692-24.053691h687.248322c13.744966 0 24.053691 13.744966 24.053691 24.053691v34.362416c0 10.308725-10.308725 20.61745-24.053691 20.61745z"  horiz-adv-x="1106" />

    
    <glyph glyph-name="xieti1" unicode="&#58912;" d="M811.15484957 871.39365888a38.83614777 38.83614777 0 0 0 1.21362886-77.64802333l-1.21362886-0.01941845H703.21948445L428.27411911-28.634074449999957l120.66391268-0.00485376a38.83614777 38.83614777 0 0 0 1.21362887-77.65287822l-1.21362887-0.01941846H215.87436999a38.83614777 38.83614777 0 0 0-1.21362887 77.65287822L215.87436999-28.634074449999957h110.02766222l274.94536534 822.35543779h-122.75620978a38.83614777 38.83614777 0 0 0-1.21362887 77.65773199l1.21362887 0.01941845h333.06851556z"  horiz-adv-x="1024" />

    
    <glyph glyph-name="qingchugeshi1" unicode="&#58888;" d="M643.84341333 811.63491555l311.45984-290.44053333c29.3888-27.40565333 30.99306667-73.45152 3.58172445-102.84600889L575.39356445 7.104284450000023h349.32963555c18.88142222 0 34.22435555-15.1552 34.52814222-33.96494223l0.00455111-0.57116444c0-19.07256889-15.46126222-34.53496889-34.53269333-34.53496889h-495.11537778c-0.23893333 0-0.47672889 0.00227555-0.71452444 0.00682666-50.94172445-1.39150222-102.43299555 16.45681778-142.64433778 53.95456L68.69674667 194.86720000000003c-29.3888 27.40565333-30.99306667 73.45152-3.58172445 102.84600889l475.88238223 510.32177778c27.41134222 29.39562667 73.45720889 31.00672 102.84600888 3.60106666z m-382.76778666-401.77208888L120.71594667 259.34392889000003c-4.69219555-5.03239111-4.42140445-12.91264 0.60643555-17.60142222l210.90076445-196.66716445c55.30737778-51.57432889 141.98670222-48.50801778 193.60654222 6.84828445l55.23342222 59.23043555-319.98748444 298.70876445z m321.30844444 344.56007111L309.51196445 461.80465778l319.98748444-298.70876445 273.02912 292.78663112c4.69219555 5.03239111 4.42140445 12.91377778-0.60643556 17.60142222L599.98435555 755.04526222c-5.02784 4.68764445-12.90808889 4.41002667-17.60142222-0.62236444z"  horiz-adv-x="1024" />

    
    <glyph glyph-name="xiahuaxian" unicode="&#59033;" d="M101-15h822V-96H101zM287 864v-480c0-120 93-219 213-225h12c120 0 219 93 225 213V864h81v-480c0-171-138-309-309-309S203 213 203 384V864h84z"  horiz-adv-x="1024" />

    
    <glyph glyph-name="zitiyanse" unicode="&#59034;" d="M62 89.16666666000003h900v-112.5H62zM548.5625 876.66666666H455.75L211.0625 232.60416666000003h90L371.375 426.66666666h270l75.9375-194.0625h98.4375L548.5625 876.66666666z m-151.875-379.6875l70.3125 188.4375c14.0625 39.375 25.3125 81.5625 33.75 123.75 14.0625-45 28.125-90 45-132.1875l67.5-177.1875h-216.5625z"  horiz-adv-x="1024" />

    
    <glyph glyph-name="zitijiacu" unicode="&#59035;" d="M531.62616816 834c137.38317714 0 246.72897158-109.34579443 246.72897246-246.72897158 0-61.68224268-22.42990635-120.56074805-64.48598174-165.42056074 100.93457901-33.64485996 168.22429893-128.9719626 171.02803711-235.51401885 0-131.77570078-100.93457901-241.12149521-232.71027977-252.33644883H139.10280401V834h392.52336415z m123.36448624-493.45794404H240.03738301v-305.60747695H624.14953262c84.1121499-2.80373818 154.20560713 64.48598174 157.00934619 148.59813164 2.80373818 75.70093447-53.27102813 142.9906544-126.16822441 157.00934531zM531.62616816 735.86915918H240.03738301v-300.00000059h277.57009335c5.60747636 2.80373818 8.41121455 2.80373818 14.01869181 2.80373819 81.30841084 8.41121455 142.9906544 81.30841084 131.77570077 165.42056074-8.41121455 70.0934581-61.68224268 123.36448623-131.77570078 131.77570166z"  horiz-adv-x="1024" />

    
    <glyph glyph-name="tianchongyanse" unicode="&#59036;" d="M62 88.98295943000005h898.53034131v-112.31629277H62zM778.01636533 563.5192955699999c11.2316291 25.27116592 8.42372227 53.35023867-11.2316291 75.81349775l-196.55351191 219.016771c-22.4632582 22.4632582-58.96605323 25.27116592-81.42931231 2.80790683l-2.80790683-2.80790683-81.42931231-89.85303458L306.28793692 875.19700797 286.63258555 852.73374976l98.27675596-106.70047821-190.93769737-213.40095645c-22.4632582-28.07907276-22.4632582-67.38977549 0-95.46884824l196.55351192-216.20886328c19.65535136-22.4632582 56.15814638-25.27116592 78.62140459-5.61581544 2.80790771 2.80790771 5.61581455 2.80790771 5.61581455 5.61581544l277.98282509 306.06189696c-19.65535136-30.88698047-33.69488818-64.58186865-42.11861045-98.27675595-5.61581455-22.4632582-8.42372227-47.73442412 0-70.1976832 11.2316291-42.11860958 36.50279502-70.1976832 70.19768321-70.19768233 28.07907276 0 50.54233183 22.4632582 64.58186865 56.15814639 11.2316291 28.07907276 11.2316291 61.77396094 0 89.85303369-16.84744365 44.92651729-39.31070273 87.04512685-67.38977637 129.16373643zM205.20327324 490.51370553c0 5.61581455 2.80790771 14.03953682 8.42372227 19.65535136l193.7456042 210.59304873L483.18609747 639.3327933200001l19.65535136 22.46325821L427.02795107 743.22536383l81.42931231 89.85303457c8.42372227 14.03953682 28.07907276 14.03953682 42.11860957 2.80790683l2.80790771-2.80790683 196.55351192-216.20886328c2.80790771-2.80790771 5.61581455-8.42372227 5.61581455-11.23162911L205.20327324 490.51370553z"  horiz-adv-x="1024" />

    
    <glyph glyph-name="jianxiaozihao" unicode="&#59031;" d="M713.6 707.2h300.8V640h-300.8zM473.6 841.6h-96L9.6-73.60000000000002h92.8l108.8 284.8h416l112-284.8H832L473.6 841.6zM240 284.79999999999995l182.4 467.2 176-467.2H240z"  horiz-adv-x="1024" />

    
    <glyph glyph-name="zengdazihao" unicode="&#59032;" d="M825.6 838.4h67.2V704H1024v-67.2h-131.2v-131.2h-67.2V636.8h-134.4V704h134.4zM464 838.4h-96L0-70.39999999999998h92.8l108.8 281.6h412.8l112-281.6h92.8L464 838.4zM230.4 284.79999999999995l182.4 464 176-464H230.4z"  horiz-adv-x="1024" />

    
    <glyph glyph-name="baocun" unicode="&#59030;" d="M985.719626 726.928349L851.738318 864.099688c-22.330218 22.330218-51.040498 31.900312-79.750779 31.900312H114.841121C51.040498 896 0 844.959502 0 781.158879v-794.317758c0-63.800623 51.040498-114.841121 114.841121-114.841121h791.127726c63.800623 0 114.841121 51.040498 114.841122 114.841121V647.17757c0 28.71028-12.760125 57.420561-35.090343 79.750779zM293.482866 835.389408h379.613707v-264.772586c0-15.950156-9.570093-25.520249-22.330218-25.520249H315.813084c-12.760125 0-22.330218 12.760125-22.330218 25.520249V835.389408z m491.264798-902.778816h-542.305296v271.152648c0 15.950156 19.140187 28.71028 41.470405 28.71028h456.174454c22.330218 0 41.470405-12.760125 41.470405-28.71028v-271.152648z m175.451713 54.230529c0-28.71028-25.520249-54.23053-54.23053-54.230529h-57.42056v271.152648c0 51.040498-47.850467 92.510903-105.271028 92.510903H287.102804c-57.420561 0-105.271028-41.470405-105.271028-92.510903v-271.152648h-63.800623c-28.71028 0-54.23053 25.520249-54.23053 54.230529V781.158879c0 28.71028 25.520249 54.23053 54.23053 54.230529h114.841121v-264.772586c0-51.040498 38.280374-89.320872 86.130841-89.320872h334.953271c47.850467 0 86.130841 41.470405 86.130841 89.320872V835.389408h35.090343c15.950156 0 28.71028-6.380062 38.280374-15.950156l133.981308-133.981308c9.570093-9.570093 15.950156-22.330218 15.950156-38.280374v-660.336449zM596.535826 592.94704c-19.140187 0-31.900312 12.760125-31.900312 31.900312V730.11838c0 19.140187 12.760125 31.900312 31.900312 31.900312s31.900312-12.760125 31.900311-31.900312v-108.461059c0-15.950156-12.760125-28.71028-31.900311-28.710281z"  horiz-adv-x="1024" />

    
    <glyph glyph-name="yulan" unicode="&#59029;" d="M771.2-128H153.6C70.4-128 0-60.8 0 25.6V742.4C0 828.8 67.2 896 153.6 896h716.8c41.6 0 80-16 108.8-44.8 28.8-28.8 44.8-67.2 44.8-108.8v-588.8c0-19.2-16-35.2-35.2-35.2s-35.2 16-35.2 35.2V742.4c0 48-38.4 86.4-86.4 86.4H153.6c-48 0-86.4-38.4-86.4-86.4v-716.8c0-48 38.4-86.4 86.4-86.4h617.6c19.2 0 35.2-16 35.2-35.2 0-16-16-32-35.2-32zM768 566.4c-57.6 57.6-137.6 89.6-217.6 89.6-83.2 0-160-32-217.6-89.6-57.6-57.6-89.6-137.6-89.6-217.6 0-83.2 32-160 89.6-217.6 57.6-57.6 137.6-89.6 217.6-89.6 83.2 0 160 32 217.6 89.6 57.6 57.6 89.6 137.6 89.6 217.6s-32 160-89.6 217.6z m-220.8-451.2c-128 0-233.6 105.6-233.6 233.6s102.4 230.4 233.6 233.6c128 0 233.6-105.6 233.6-233.6s-102.4-233.6-233.6-233.6zM921.6-64c-9.6 0-19.2 3.2-25.6 9.6l-179.2 176c-16 16-12.8 41.6 3.2 54.4 16 12.8 38.4 12.8 51.2 0l179.2-176c16-16 16-38.4 0-54.4-9.6-6.4-19.2-9.6-28.8-9.6z"  horiz-adv-x="1024" />

    
    <glyph glyph-name="chexiao" unicode="&#59025;" d="M185.6 713.6l112 108.8 9.6 9.6C329.6 870.4 281.6 908.8 246.4 883.2l-6.4-6.4-121.6-118.4C48 691.2 70.4 636.8 166.4 636.8h361.6c169.6 0 342.4-160 342.4-342.4s-172.8-345.6-342.4-345.6h-134.4c-22.4 0-38.4-16-38.4-38.4s16-38.4 38.4-38.4h134.4c211.2 0 419.2 172.8 419.2 419.2S739.2 713.6 528 713.6H185.6z"  horiz-adv-x="1024" />

    
    <glyph glyph-name="huifu" unicode="&#59026;" d="M838.4 713.6l-112 108.8-9.6 9.6c-22.4 38.4 25.6 76.8 60.8 51.2l6.4-6.4 121.6-118.4c70.4-67.2 48-121.6-48-121.6H496c-169.6 0-342.4-160-342.4-342.4s172.8-345.6 342.4-345.6h134.4c22.4 0 38.4-16 38.4-38.4s-16-38.4-38.4-38.4h-134.4C284.8-128 76.8 44.8 76.8 291.2S284.8 713.6 496 713.6h342.4z"  horiz-adv-x="1024" />

    
    <glyph glyph-name="huifu-bukedianji" unicode="&#59027;" d="M838.4 713.6l-112 108.8-9.6 9.6c-22.4 38.4 25.6 76.8 60.8 51.2l6.4-6.4 121.6-118.4c70.4-67.2 48-121.6-48-121.6H496c-169.6 0-342.4-160-342.4-342.4s172.8-345.6 342.4-345.6h134.4c22.4 0 38.4-16 38.4-38.4s-16-38.4-38.4-38.4h-134.4C284.8-128 76.8 44.8 76.8 291.2S284.8 713.6 496 713.6h342.4z"  horiz-adv-x="1024" />

    
    <glyph glyph-name="chexiao-bukedianji" unicode="&#59028;" d="M185.6 713.6l112 108.8 9.6 9.6C329.6 870.4 281.6 908.8 246.4 883.2l-6.4-6.4-121.6-118.4C48 691.2 70.4 636.8 166.4 636.8h361.6c169.6 0 342.4-160 342.4-342.4s-172.8-345.6-342.4-345.6h-134.4c-22.4 0-38.4-16-38.4-38.4s16-38.4 38.4-38.4h134.4c211.2 0 419.2 172.8 419.2 419.2S739.2 713.6 528 713.6H185.6z"  horiz-adv-x="1024" />

    
    <glyph glyph-name="jianqie" unicode="&#59408;" d="M827.00288 801.45635555c15.90840889-12.97521778 18.42062222-36.28600889 5.75260445-52.34232888l-0.38912-0.48469334L560.45226667 415.26613333l97.62929778-119.69080888c27.21336889 17.08032 59.26684445 27.16103111 93.63342222 27.71854222l3.01056 0.02503111c100.54087111 0 182.04444445-81.50471111 182.04444444-182.04444445 0-100.54087111-81.50357333-182.04444445-182.04444444-182.04444444-100.53973333 0-182.04444445 81.50357333-182.04444445 182.04444444 0 37.77194667 11.50407111 72.8576 31.19900445 101.94375112L512 355.86275555l-91.88010667-112.64568888c19.17155555-28.31246222 30.58005333-62.30812445 31.17511112-98.93319112l0.02275555-3.01056c0-100.54087111-81.50357333-182.04444445-182.04444445-182.04444444-100.53973333 0-182.04444445 81.50357333-182.04444444 182.04444444 0 100.53973333 81.50471111 182.04444445 182.04444444 182.04444445 35.50663111 0 68.63872-10.16490667 96.64512-27.74357333l97.62929778 119.69080888-271.91409778 333.3632c-13.1072 16.06883555-10.70648889 39.71982222 5.36348445 52.82702223 15.90840889 12.97635555 39.24764445 10.752 52.43107555-4.88448l0.39594667-0.47786667L512 474.66951111l262.17585778 321.42449778c13.1072 16.06883555 36.75818667 18.46954667 52.82702222 5.36234666zM269.27445333 250.50112000000001c-60.32497778 0-109.22666667-48.90282667-109.22666666-109.22666667 0-60.32497778 48.90168889-109.22666667 109.22666666-109.22666666 60.32384 0 109.22666667 48.90168889 109.22666667 109.22666666 0 60.32384-48.90282667 109.22666667-109.22666667 109.22666667z m485.45109334 0c-60.32384 0-109.22666667-48.90282667-109.22666667-109.22666667 0-60.32497778 48.90282667-109.22666667 109.22666667-109.22666666 60.32497778 0 109.22666667 48.90168889 109.22666666 109.22666666 0 60.32384-48.90168889 109.22666667-109.22666666 109.22666667z"  horiz-adv-x="1024" />

    
    <glyph glyph-name="fuzhi" unicode="&#59024;" d="M889.6 896H387.2C310.4 896 252.8 835.2 252.8 761.6v-502.4c0-73.6 60.8-134.4 134.4-134.4h502.4c73.6 0 134.4 60.8 134.4 134.4V761.6C1024 835.2 963.2 896 889.6 896z m54.4-636.8c0-28.8-25.6-54.4-54.4-54.4H387.2c-28.8 0-54.4 25.6-54.4 54.4V761.6c0 28.8 25.6 54.4 54.4 54.4h502.4c28.8 0 54.4-25.6 54.4-54.4v-502.4zM691.2 80v-70.4c0-28.8-25.6-54.4-54.4-54.4H134.4c-28.8 0-54.4 25.6-54.4 54.4V512c0 28.8 25.6 54.4 54.4 54.4h70.4V646.4H134.4C60.8 646.4 0 585.6 0 512v-502.4C0-67.2 60.8-128 134.4-128h502.4c73.6 0 134.4 60.8 134.4 134.4v70.4h-80z"  horiz-adv-x="1024" />

    
    <glyph glyph-name="niantie" unicode="&#59023;" d="M764.8 832H169.6C102.4 832 48 777.6 48 710.4v-643.2c0-67.2 54.4-121.6 121.6-121.6 9.6 0 16 3.2 22.4 9.6 6.4 6.4 9.6 12.8 9.6 22.4 0 16-12.8 28.8-28.8 28.8-32 0-64 28.8-64 64v640c0 32 28.8 64 64 64H768c32 0 64-28.8 64-64v-96c0-16 12.8-28.8 28.8-28.8s28.8 12.8 28.8 28.8v96C886.4 777.6 832 832 764.8 832zM864 579.2H342.4c-64 0-112-44.8-112-102.4v-502.4c0-54.4 51.2-102.4 112-102.4H864c60.8 0 112 44.8 112 96V480c0 54.4-51.2 99.2-112 99.2z m54.4-99.2v-508.8c0-22.4-22.4-41.6-54.4-41.6H342.4c-28.8 0-54.4 22.4-54.4 41.6V480c0 22.4 22.4 41.6 54.4 41.6H864c28.8 0 54.4-25.6 54.4-41.6zM396.8 380.8h432c16 0 28.8 12.8 28.8 28.8s-12.8 28.8-28.8 28.8H396.8c-16 0-28.8-12.8-28.8-28.8s9.6-28.8 28.8-28.8zM828.8 259.2H396.8c-16 0-28.8-12.8-28.8-28.8s12.8-28.8 28.8-28.8h432c16 0 28.8 12.8 28.8 28.8 0 19.2-12.8 28.8-28.8 28.8zM691.2 76.8h-291.2c-16 0-28.8-12.8-28.8-28.8s12.8-28.8 28.8-28.8h291.2c12.8 0 28.8 12.8 28.8 28.8s-12.8 28.8-28.8 28.8zM304 864H640v-124.8H304V864zM640 892.8H304c-16 0-28.8-9.6-28.8-28.8v-124.8c0-16 12.8-28.8 28.8-28.8H640c16 0 28.8 12.8 28.8 28.8V864c0 19.2-12.8 28.8-28.8 28.8z m-28.8-57.6V768h-275.2V835.2h275.2z"  horiz-adv-x="1024" />

    
    <glyph glyph-name="weixuan" unicode="&#59020;" d="M886.4 896H137.6C60.8 896 0 835.2 0 758.4v-752C0-67.2 60.8-128 137.6-128h752c73.6 0 137.6 60.8 137.6 137.6V758.4C1024 835.2 963.2 896 886.4 896zM89.6 758.4c0 25.6 19.2 44.8 44.8 44.8h752c25.6 0 44.8-19.2 44.8-44.8v-752c0-25.6-19.2-44.8-44.8-44.8H137.6c-25.6 0-44.8 19.2-44.8 44.8V758.4z"  horiz-adv-x="1027" />

    
    <glyph glyph-name="danyuangeyuansu" unicode="&#59021;" d="M64 848h896v-841.6c0-51.2-28.8-92.8-64-92.8H64V848zM921.6 896C979.2 896 1024 851.2 1024 793.6v-819.2c0-51.2-41.6-96-92.8-102.4H102.4C44.8-128 0-83.2 0-25.6V793.6C0 851.2 44.8 896 102.4 896h819.2zM272 214.4H67.2v-240c0-19.2 16-35.2 35.2-35.2h169.6v275.2z m409.6 0H342.4v-272h342.4v272z m275.2 0h-204.8v-272h169.6c19.2 0 35.2 16 35.2 35.2v236.8zM272 553.6H67.2v-272h204.8v272z m409.6 0H342.4v-272h342.4v272z m275.2 0h-204.8v-272h204.8v272zM272 828.8H102.4c-19.2 0-35.2-16-35.2-35.2v-169.6h204.8V828.8z m649.6 0h-169.6v-204.8h204.8V793.6c0 19.2-16 35.2-35.2 35.2z m-240 0H342.4v-204.8h342.4V828.8z"  horiz-adv-x="1024" />

    
    <glyph glyph-name="gouxuan" unicode="&#59022;" d="M905.6 896c64 0 115.2-51.2 115.2-115.2v-793.6c0-64-51.2-115.2-115.2-115.2H115.2c-64 0-115.2 51.2-115.2 115.2V780.8C0 844.8 51.2 896 115.2 896h790.4z m-112-320c-19.2 19.2-48 19.2-64 0l-310.4-310.4L288 400c-19.2 19.2-48 19.2-64 0-19.2-19.2-19.2-48 0-64l169.6-169.6c19.2-19.2 48-19.2 64 0L800 508.8c9.6 19.2 9.6 48-6.4 67.2z"  horiz-adv-x="1024" />

    
    <glyph glyph-name="wenjianjia" unicode="&#59015;" d="M969.6 579.2v25.6c0 70.4-57.6 128-128 128h-320c-22.4 38.4-67.2 64-112 64H134.4c-70.4 0-128-57.6-128-128v-582.4c0-70.4 57.6-128 128-128h758.4c70.4 0 128 57.6 128 128V476.8c0 41.6-22.4 80-51.2 102.4z m-131.2 89.6c35.2 0 64-28.8 64-64h-297.6c-28.8 0-54.4 19.2-60.8 44.8l-6.4 22.4 300.8-3.2z m-768 0c0 35.2 28.8 64 64 64h268.8c28.8 0 54.4-19.2 60.8-44.8l19.2-57.6c16-54.4 67.2-89.6 124.8-89.6h281.6c35.2 0 64-28.8 64-64v-291.2H70.4V668.8z m883.2-582.4c0-35.2-28.8-64-64-64H134.4c-35.2 0-64 28.8-64 64v32h883.2v-32z"  horiz-adv-x="1024" />

    
    <glyph glyph-name="tianjiashujuyuan" unicode="&#59016;" d="M928 710.4h-89.6V796.8c0 54.4-41.6 96-96 96H99.2c-51.2 0-96-41.6-96-96v-643.2c0-51.2 41.6-96 96-96h86.4V-32c0-51.2 41.6-92.8 92.8-92.8H928c51.2 0 92.8 41.6 92.8 89.6V620.8c0 48-41.6 89.6-92.8 89.6zM73.6 796.8c0 16 12.8 25.6 25.6 25.6h643.2c12.8 0 25.6-12.8 25.6-25.6v-86.4H275.2C224 710.4 182.4 668.8 182.4 617.6v-492.8H99.2c-12.8 0-25.6 12.8-25.6 25.6V796.8zM256 620.8c0 9.6 9.6 19.2 19.2 19.2H928c12.8 0 22.4-9.6 22.4-22.4V-32c0-12.8-9.6-22.4-22.4-22.4H275.2c-9.6 0-19.2 9.6-19.2 22.4V620.8zM428.8 259.2h137.6v-140.8c0-19.2 16-35.2 35.2-35.2 19.2 0 35.2 16 35.2 38.4v137.6h137.6c19.2 0 35.2 16 35.2 35.2 0 19.2-16 35.2-35.2 35.2H640v137.6c0 19.2-16 35.2-35.2 35.2-19.2 0-35.2-16-35.2-35.2v-137.6h-137.6c-19.2 0-35.2-16-35.2-35.2-3.2-19.2 12.8-35.2 32-35.2z"  horiz-adv-x="1024" />

    
    <glyph glyph-name="shujujishouqi" unicode="&#59017;" d="M454.4 521.6L604.8 384c3.2-3.2 6.4-9.6 6.4-16s-3.2-12.8-6.4-16l-150.4-137.6c-6.4-6.4-16-9.6-25.6-6.4s-16 12.8-16 22.4v275.2c0 9.6 6.4 19.2 16 22.4 6.4 3.2 19.2 0 25.6-6.4z"  horiz-adv-x="1024" />

    
    <glyph glyph-name="shujujixiala" unicode="&#59018;" d="M665.6 425.6l-137.6-150.4c-3.2-3.2-9.6-6.4-16-6.4s-12.8 3.2-16 6.4L358.4 425.6c-6.4 6.4-9.6 16-6.4 25.6s12.8 16 22.4 16h275.2c9.6 0 19.2-6.4 22.4-16 3.2-6.4 0-19.2-6.4-25.6z"  horiz-adv-x="1024" />

    
    <glyph glyph-name="wenjian" unicode="&#59019;" d="M905.6 624L636.8 876.8C624 889.6 608 896 588.8 896H166.4S64 889.6 64 800v-832s3.2-96 99.2-96h656s99.2 3.2 99.2 96V579.2c6.4 16 0 32-12.8 44.8z m-268.8 163.2l176-166.4h-144s-32 0-32 32V787.2zM857.6-32c0-32-32-32-32-32H166.4c-32 0-35.2 32-35.2 32V800c0 28.8 35.2 32 35.2 32h403.2v-179.2c0-89.6 99.2-96 99.2-96h185.6c3.2 0 3.2-588.8 3.2-588.8zM281.6 432c0-19.2 16-32 35.2-32h361.6c19.2 0 35.2 12.8 35.2 32 0 16-16 32-35.2 32H313.6c-16 0-32-12.8-32-32z m396.8-128H313.6c-19.2 0-32-12.8-35.2-32 0-16 16-32 35.2-32h361.6c19.2 0 35.2 16 35.2 32s-16 32-32 32z m0-163.2H313.6c-19.2 0-32-12.8-35.2-32 0-16 16-32 35.2-32h361.6c19.2 0 35.2 16 35.2 32 0 19.2-16 32-32 32z"  horiz-adv-x="1024" />

    
    <glyph glyph-name="guanbi" unicode="&#59255;" d="M924.240842 895.461053H81.165474A80.572632 80.572632 0 0 1 0.565895 814.807579v-843.183158a80.572632 80.572632 0 0 1 80.599579-80.626526h843.183158a80.572632 80.572632 0 0 1 80.626526 80.626526V814.834526A80.788211 80.788211 0 0 1 924.240842 895.434105z m-191.784421-732.698948c-7.814737-7.814737-18.135579-11.749053-28.429474-11.749052-10.320842 0-20.749474 3.907368-28.56421 11.856842l-172.732632 173.325473-172.786526-173.217684c-7.814737-7.949474-18.243368-11.856842-28.564211-11.856842a40.313263 40.313263 0 0 0-28.56421 68.742737l173.002105 173.433263-172.975158 173.433263a40.313263 40.313263 0 0 0 57.128421 56.858948l172.732632-173.190737 172.759579 173.190737a40.313263 40.313263 0 0 0 56.993684 0.107789 40.205474 40.205474 0 0 0 0-56.966737l-172.867368-173.433263 172.975158-173.541053a40.313263 40.313263 0 0 0-0.10779-56.993684z"  horiz-adv-x="1024" />

    
    <glyph glyph-name="quanpingxianshi" unicode="&#59011;" d="M966.4-128h-147.2c-19.2 0-35.2 16-35.2 35.2s16 35.2 35.2 35.2h112c12.8 0 22.4 9.6 22.4 22.4v112c0 19.2 16 35.2 35.2 35.2s35.2-16 35.2-35.2v-147.2c0-32-25.6-57.6-57.6-57.6zM988.8 656c-19.2 0-35.2 16-35.2 35.2V803.2c0 12.8-9.6 22.4-22.4 22.4h-112c-19.2 0-35.2 16-35.2 35.2 0 19.2 16 35.2 35.2 35.2h147.2c32 0 57.6-25.6 57.6-57.6v-147.2c0-19.2-16-35.2-35.2-35.2zM809.6 624c0 32-25.6 57.6-57.6 57.6h-480c-32 0-57.6-25.6-57.6-57.6v-480c0-32 25.6-57.6 57.6-57.6h480c32 0 57.6 25.6 57.6 57.6v480z m-70.4-444.8c0-12.8-9.6-22.4-22.4-22.4H304c-12.8 0-22.4 9.6-22.4 22.4V588.8c0 12.8 9.6 22.4 22.4 22.4h412.8c12.8 0 22.4-9.6 22.4-22.4v-409.6zM204.8 828.8H92.8c-12.8 0-22.4-9.6-22.4-22.4v-112c0-19.2-16-35.2-35.2-35.2C16 656 0 672 0 691.2V838.4C0 870.4 25.6 896 57.6 896h147.2C224 896 240 880 240 860.8s-16-32-35.2-32zM35.2 112c19.2 0 35.2-16 35.2-35.2v-112c0-12.8 9.6-22.4 22.4-22.4h112c19.2 0 35.2-16 35.2-35.2 0-19.2-16-35.2-35.2-35.2H57.6c-32 0-57.6 25.6-57.6 57.6v147.2c0 19.2 16 35.2 35.2 35.2z"  horiz-adv-x="1024" />

    
    <glyph glyph-name="tuichuquanping" unicode="&#59014;" d="M384 544c0-19.2-12.8-32-32-32H32c-19.2 0-32 12.8-32 32s12.8 32 32 32h288V864c0 19.2 12.8 32 32 32s32-12.8 32-32v-320zM672 256h320c19.2 0 32-12.8 32-32s-12.8-32-32-32h-288v-288c0-19.2-12.8-32-32-32s-32 12.8-32 32V224c0 19.2 12.8 32 32 32zM704 864v-288h288c19.2 0 32-12.8 32-32s-12.8-32-32-32H672c-19.2 0-32 12.8-32 32V864c0 19.2 12.8 32 32 32s32-12.8 32-32zM320-96v288H32c-19.2 0-32 12.8-32 32s12.8 32 32 32h320c19.2 0 32-12.8 32-32v-320c0-19.2-12.8-32-32-32s-32 12.8-32 32z"  horiz-adv-x="1024" />

    
    <glyph glyph-name="suoxiao" unicode="&#59012;" d="M1014.4-64l-224 224c64 76.8 105.6 179.2 105.6 288C896 694.4 694.4 892.8 448 892.8S3.2 694.4 3.2 448s198.4-448 448-444.8c105.6 0 208 38.4 288 105.6l224-224c12.8-16 35.2-16 51.2 0 16 12.8 16 35.2 0 51.2zM448 76.8C243.2 76.8 76.8 243.2 76.8 448S243.2 819.2 448 819.2 819.2 652.8 819.2 448 652.8 76.8 448 76.8zM646.4 486.4H252.8c-16 0-28.8-19.2-28.8-38.4 0-22.4 12.8-38.4 28.8-38.4h393.6c16 0 28.8 19.2 28.8 38.4 0 22.4-12.8 38.4-28.8 38.4z"  horiz-adv-x="1026" />

    
    <glyph glyph-name="fangda" unicode="&#59013;" d="M409.6 483.2V633.6c0 19.2 16 38.4 38.4 38.4 19.2 0 38.4-16 38.4-38.4v-147.2h160c16 0 28.8-16 28.8-38.4 0-19.2-12.8-38.4-28.8-38.4h-160v-147.2c0-19.2-16-38.4-38.4-38.4-19.2 0-38.4 16-38.4 38.4v147.2H252.8c-16 0-28.8 16-28.8 38.4 0 19.2 12.8 38.4 28.8 38.4l156.8-3.2zM790.4 160l224-224c16-16 16-38.4 0-51.2-16-16-38.4-16-51.2 0l-224 224c-80-67.2-182.4-105.6-288-105.6C201.6 0 3.2 201.6 3.2 448S201.6 892.8 448 892.8 896 694.4 896 448c0-108.8-41.6-211.2-105.6-288zM448 76.8c204.8 0 371.2 166.4 371.2 371.2S652.8 819.2 448 819.2 76.8 652.8 76.8 448 243.2 76.8 448 76.8z"  horiz-adv-x="1026" />

    
    <glyph glyph-name="dayin" unicode="&#59009;" d="M325.383178 206.953271h370.043613c19.140187 0 31.900312 12.760125 31.900312 31.900312s-15.950156 31.900312-31.900312 31.900311H325.383178c-19.140187 0-31.900312-12.760125-31.900312-31.900311s15.950156-31.900312 31.900312-31.900312zM325.383178 50.641745h370.043613c19.140187 0 31.900312 15.950156 31.900312 31.900311 0 19.140187-15.950156 31.900312-31.900312 31.900312H325.383178c-19.140187 0-31.900312-15.950156-31.900312-31.900312s15.950156-31.900312 31.900312-31.900311zM992.099688 691.838006c-12.760125 12.760125-28.71028 19.140187-44.660436 19.140187h-111.65109V800.299065c0 47.850467-25.520249 95.700935-73.370717 95.700935h-478.504672C236.062305 896 185.021807 848.149533 185.021807 800.299065v-89.320872H98.890966C51.040498 710.978193 0 659.937695 0 612.087227v-293.482866c0-47.850467 51.040498-76.560748 98.890966-76.560747h86.130841v-293.482866c0-47.850467 51.040498-76.560748 98.890966-76.560748h478.504672c47.850467 0 73.370717 25.520249 73.370717 76.560748v293.482866h111.65109c47.850467 0 73.370717 28.71028 73.370717 76.560747V612.087227c0 31.900312-9.570093 60.610592-28.710281 79.750779zM252.012461 800.299065c0 9.570093 22.330218 31.900312 31.900312 31.900312H765.607477c3.190031-3.190031 3.190031-19.140187 3.190031-25.520249v-95.700935H252.012461V800.299065z m0-443.41433c0 12.760125 9.570093 19.140187 19.140187 19.140187h478.504673c9.570093 0 19.140187-9.570093 19.140187-19.140187v-395.563863c0-12.760125-9.570093-22.330218-19.140187-22.330218h-478.504673c-9.570093 0-19.140187 9.570093-19.140187 22.330218V356.884735z m510.404984 86.130841h-478.504672c-47.850467 0-98.890966-51.040498-98.890966-95.700934v-35.090343H98.890966c-22.330218 0-31.900312 3.190031-31.900312 9.570094V612.087227c0 9.570093 22.330218 31.900312 31.900312 31.900312H950.629283c3.190031-3.190031 3.190031-15.950156 3.190032-25.520249v-306.242991h-118.031153v35.090343c0 47.850467-25.520249 95.700935-73.370717 95.700934zM819.838006 583.376947a38.280374 38.280374 0 1 1 76.560748 0 38.280374 38.280374 0 1 1-76.560748 0Z"  horiz-adv-x="1024" />

    
    <glyph glyph-name="dayinyulan" unicode="&#59010;" d="M326.4 208h371.2c19.2 0 32 12.8 32 32s-16 32-32 32H326.4c-19.2 0-32-12.8-32-32s16-32 32-32zM316.8 51.2h272c12.8 0 22.4 16 22.4 32 0 19.2-12.8 32-22.4 32H316.8c-16-3.2-22.4-16-22.4-32s9.6-32 22.4-32zM819.2 582.4a38.4 38.4 0 1 1 76.8 0 38.4 38.4 0 1 1-76.8 0ZM956.8-83.2l-57.6 57.6c16 25.6 25.6 54.4 25.6 83.2 0 80-67.2 147.2-147.2 147.2-80 0-147.2-64-147.2-147.2 0-38.4 16-76.8 44.8-105.6 28.8-25.6 64-41.6 102.4-41.6 32 0 60.8 9.6 86.4 25.6l54.4-54.4c3.2-6.4 9.6-9.6 16-9.6s12.8 3.2 16 6.4c6.4 3.2 9.6 9.6 9.6 16 6.4 9.6 3.2 16-3.2 22.4z m-272 140.8c0 51.2 41.6 96 96 96 51.2 0 96-41.6 96-96s-41.6-92.8-96-92.8c-51.2-3.2-96 38.4-96 92.8zM992 691.2c-12.8 12.8-28.8 19.2-44.8 19.2h-112V800c0 48-25.6 96-73.6 96h-480c-44.8 0-96-48-96-96v-89.6H99.2C51.2 710.4 0 659.2 0 611.2V320c0-48 51.2-76.8 99.2-76.8h86.4v-294.4c0-48 51.2-76.8 99.2-76.8h326.4v67.2H272c-9.6 0-19.2 9.6-19.2 22.4V358.4c0 12.8 9.6 19.2 19.2 19.2h480c9.6 0 19.2-9.6 19.2-19.2v-115.2h179.2c48 0 73.6 28.8 73.6 76.8V611.2c-3.2 32-12.8 60.8-32 80zM252.8 800c0 9.6 22.4 32 32 32H768v-121.6H252.8V800z m700.8-476.8V313.6h-118.4v35.2c0 48-25.6 96-73.6 96h-480c-48 0-99.2-51.2-99.2-96v-35.2H99.2c-22.4 0-32 3.2-32 9.6v288c0 9.6 22.4 32 32 32h851.2c3.2-3.2 3.2-16 3.2-25.6v-294.4z"  horiz-adv-x="1024" />

    
    <glyph glyph-name="daochuCSV" unicode="&#59004;" d="M924.8 640l-246.4 256H185.6c-22.4 0-44.8-6.4-60.8-25.6S99.2 832 99.2 809.6v-854.4c0-48 38.4-83.2 83.2-83.2h659.2c22.4 0 41.6 9.6 57.6 25.6s25.6 38.4 25.6 60.8V640zM924.8 640h-163.2c-22.4 0-41.6 9.6-57.6 25.6s-25.6 38.4-25.6 60.8V896l246.4-256zM156.8 160c0 96 64 150.4 134.4 150.4 38.4 0 67.2-16 86.4-38.4l-35.2-41.6c-12.8 12.8-28.8 22.4-51.2 22.4-38.4 0-70.4-35.2-70.4-92.8 0-57.6 28.8-92.8 70.4-92.8 22.4 0 41.6 12.8 54.4 25.6l35.2-41.6c-22.4-28.8-54.4-41.6-92.8-41.6-70.4 3.2-131.2 54.4-131.2 150.4zM393.6 54.4l38.4 44.8c19.2-19.2 48-28.8 70.4-28.8 25.6 0 41.6 9.6 41.6 28.8 0 19.2-16 22.4-41.6 35.2l-38.4 16c-28.8 12.8-57.6 35.2-57.6 76.8 0 48 41.6 86.4 102.4 86.4 32 0 67.2-12.8 92.8-38.4l-32-41.6c-19.2 16-35.2 22.4-57.6 22.4s-35.2-9.6-35.2-25.6 19.2-22.4 44.8-35.2l35.2-16c35.2-12.8 57.6-38.4 57.6-76.8 0-48-38.4-89.6-108.8-89.6-44.8 0-83.2 16-112 41.6zM617.6 304h67.2l35.2-134.4c9.6-32 12.8-60.8 22.4-92.8h3.2c9.6 32 16 60.8 22.4 92.8l35.2 134.4h67.2l-86.4-284.8H704l-86.4 284.8z"  horiz-adv-x="1024" />

    
    <glyph glyph-name="daochuEXCEL" unicode="&#59005;" d="M924.8 640l-246.4 256H185.6c-22.4 0-44.8-6.4-60.8-25.6S99.2 832 99.2 809.6v-854.4c0-48 38.4-83.2 83.2-83.2h659.2c22.4 0 41.6 9.6 57.6 25.6s25.6 38.4 25.6 60.8V640zM924.8 640h-163.2c-22.4 0-41.6 9.6-57.6 25.6s-25.6 38.4-25.6 60.8V896l246.4-256zM454.4 236.8l-147.2 201.6H416l60.8-92.8c12.8-19.2 25.6-38.4 41.6-64h3.2c12.8 25.6 25.6 44.8 38.4 64l57.6 92.8h105.6L576 233.6l156.8-211.2h-108.8l-67.2 99.2c-12.8 22.4-28.8 41.6-44.8 67.2h-3.2c-16-25.6-28.8-44.8-41.6-67.2l-67.2-99.2H294.4l160 214.4z"  horiz-adv-x="1024" />

    
    <glyph glyph-name="daochuTXT" unicode="&#59006;" d="M924.8 640l-246.4 256H185.6c-22.4 0-44.8-6.4-60.8-25.6S99.2 832 99.2 809.6v-854.4c0-48 38.4-83.2 83.2-83.2h659.2c22.4 0 41.6 9.6 57.6 25.6s25.6 38.4 25.6 60.8V640zM924.8 640h-163.2c-22.4 0-41.6 9.6-57.6 25.6s-25.6 38.4-25.6 60.8V896l246.4-256zM467.2 374.4h-160v60.8h419.2v-60.8h-160v-352h-99.2v352z"  horiz-adv-x="1024" />

    
    <glyph glyph-name="daochuWORD" unicode="&#59007;" d="M921.6 640l-246.4 256H182.4C160 896 137.6 889.6 121.6 870.4S96 832 96 809.6v-854.4C96-92.8 134.4-128 179.2-128h659.2c22.4 0 41.6 9.6 57.6 25.6s25.6 38.4 25.6 60.8V640zM921.6 640h-163.2c-22.4 0-41.6 9.6-57.6 25.6s-25.6 38.4-25.6 60.8V896l246.4-256zM259.2 438.4h76.8l35.2-208c6.4-44.8 12.8-89.6 19.2-131.2h3.2c9.6 44.8 19.2 89.6 25.6 131.2l51.2 208h64l51.2-208c9.6-41.6 19.2-86.4 28.8-131.2h3.2c6.4 44.8 12.8 89.6 19.2 131.2l35.2 208h70.4l-80-416h-89.6l-51.2 217.6-19.2 96h-3.2l-19.2-96-51.2-217.6h-89.6l-80 416z"  horiz-adv-x="1024" />

    
    <glyph glyph-name="daochuPDF" unicode="&#59008;" d="M921.6 640l-246.4 256H182.4C160 896 137.6 889.6 121.6 870.4S96 832 96 809.6v-854.4C96-92.8 134.4-128 179.2-128h659.2c22.4 0 41.6 9.6 57.6 25.6s25.6 38.4 25.6 60.8V640zM716.8 22.4c-22.4 0-44.8 16-70.4 51.2l-28.8 48c-6.4 16-16 28.8-22.4 48-44.8 19.2-89.6 32-128 41.6-25.6-16-48-32-70.4-41.6-32-16-57.6-22.4-80-22.4-6.4 0-12.8 0-22.4 3.2-6.4 3.2-12.8 3.2-19.2 9.6-6.4 3.2-9.6 9.6-12.8 12.8-3.2 3.2-6.4 9.6-6.4 16-3.2 9.6-3.2 19.2-3.2 28.8 3.2 6.4 3.2 12.8 9.6 16 3.2 3.2 6.4 9.6 12.8 12.8l19.2 9.6c6.4 3.2 16 3.2 22.4 6.4 9.6 0 19.2 3.2 28.8 0 32 0 73.6-6.4 121.6-16 32 22.4 60.8 44.8 86.4 70.4-6.4 38.4-12.8 70.4-12.8 99.2 0 19.2 0 35.2 3.2 51.2 0 6.4 3.2 16 6.4 22.4l9.6 19.2c6.4 6.4 12.8 12.8 19.2 16 9.6 3.2 16 6.4 25.6 6.4 9.6 0 16 0 25.6-3.2 16-3.2 25.6-12.8 35.2-19.2 3.2-3.2 6.4-6.4 9.6-12.8 3.2-3.2 3.2-9.6 3.2-12.8 3.2-6.4 3.2-12.8 3.2-22.4 0-6.4-3.2-16-3.2-22.4-3.2-6.4-6.4-16-9.6-22.4-3.2-6.4-9.6-16-12.8-22.4-9.6-16-22.4-32-32-44.8-9.6-12.8-22.4-25.6-35.2-38.4 9.6-41.6 22.4-80 38.4-115.2 38.4-16 67.2-32 92.8-51.2 16-9.6 25.6-19.2 35.2-32 3.2-6.4 6.4-9.6 12.8-16 3.2-6.4 3.2-9.6 6.4-16v-22.4c-3.2-6.4-6.4-16-12.8-19.2-6.4-3.2-9.6-6.4-16-9.6-16-6.4-22.4-6.4-28.8-6.4z m-41.6 102.4c12.8-25.6 22.4-35.2 28.8-35.2 0 0 3.2 0 3.2 3.2 3.2 3.2 3.2 3.2 3.2 6.4-3.2 3.2-16 12.8-35.2 25.6zM352 224c-6.4 0-12.8 0-19.2-3.2-3.2 0-3.2-3.2-6.4-3.2 0 0-3.2-3.2 0-6.4 0-6.4 6.4-9.6 12.8-9.6 12.8 0 28.8 6.4 48 19.2-12.8 3.2-25.6 3.2-35.2 3.2z m198.4 41.6c-6.4-6.4-16-12.8-22.4-19.2 9.6-3.2 22.4-6.4 32-9.6l-9.6 28.8z m51.2 195.2c-3.2 0-6.4 0-9.6-3.2-3.2-3.2-6.4-12.8-6.4-22.4 0-9.6 0-22.4 3.2-38.4 9.6 9.6 19.2 22.4 22.4 32s6.4 16 6.4 22.4c0 3.2 0 6.4-12.8 9.6h-3.2zM921.6 640h-163.2c-22.4 0-41.6 9.6-57.6 25.6s-25.6 38.4-25.6 60.8V896l246.4-256z"  horiz-adv-x="1024" />

    
    <glyph glyph-name="shangyiye-bukedianji" unicode="&#59000;" d="M128 544h252.8c38.4 0 67.2 28.8 67.2 67.2V864h-60.8v-252.8s0-6.4-6.4-6.4H128V544zM48 208l124.8-128c3.2-3.2 6.4-3.2 9.6 0l35.2 35.2c3.2 3.2 3.2 6.4 0 6.4l-73.6 76.8c-3.2 3.2 0 9.6 3.2 9.6h246.4c3.2 0 6.4 3.2 6.4 6.4v48c0 3.2-3.2 6.4-6.4 6.4H140.8c-6.4 0-6.4 6.4-3.2 9.6L214.4 352c3.2 3.2 3.2 3.2 0 6.4l-35.2 35.2c-3.2 3.2-6.4 3.2-9.6 0L12.8 236.8l35.2-28.8zM156.8 16v-54.4c0-12.8 9.6-22.4 22.4-22.4h672c12.8 0 22.4 9.6 22.4 22.4V809.6c3.2 12.8-6.4 22.4-19.2 22.4v3.2H412.8L160 582.4V460.8H99.2V576c0 16 6.4 35.2 19.2 48L371.2 876.8c9.6 12.8 28.8 19.2 44.8 19.2h438.4c48 0 83.2-38.4 83.2-86.4v-851.2c0-48-38.4-86.4-86.4-86.4h-672c-44.8 0-86.4 38.4-86.4 83.2v54.4h64v6.4z"  horiz-adv-x="1024" />

    
    <glyph glyph-name="shangyiye" unicode="&#59001;" d="M121.6 544h252.8c38.4 0 67.2 28.8 67.2 67.2V864h-60.8v-252.8s0-6.4-6.4-6.4H121.6V544zM41.6 208l124.8-128c3.2-3.2 6.4-3.2 9.6 0l35.2 35.2c3.2 3.2 3.2 6.4 0 6.4l-73.6 76.8c-3.2 3.2 0 9.6 3.2 9.6h246.4c3.2 0 6.4 3.2 6.4 6.4v48c0 3.2-3.2 6.4-6.4 6.4H134.4c-6.4 0-6.4 6.4-3.2 9.6L208 352c3.2 3.2 3.2 3.2 0 6.4l-35.2 35.2c-3.2 3.2-6.4 3.2-9.6 0L6.4 236.8l35.2-28.8zM150.4 16v-54.4c0-12.8 9.6-22.4 22.4-22.4h672c12.8 0 22.4 9.6 22.4 22.4V809.6c0 19.2-19.2 25.6-19.2 25.6H406.4L153.6 582.4V460.8H92.8V576c0 16 6.4 35.2 19.2 48L364.8 876.8c9.6 12.8 28.8 19.2 44.8 19.2h438.4c48 0 83.2-38.4 83.2-86.4v-851.2c0-48-38.4-86.4-86.4-86.4h-672c-44.8 0-86.4 38.4-86.4 83.2v54.4h64v6.4z"  horiz-adv-x="1024" />

    
    <glyph glyph-name="xiayiye" unicode="&#59002;" d="M899.2 544h-252.8c-38.4 0-67.2 28.8-67.2 67.2V864H640v-252.8s0-6.4 6.4-6.4h252.8V544zM979.2 208l-124.8-128c-3.2-3.2-6.4-3.2-9.6 0l-35.2 35.2c-3.2 3.2-3.2 6.4 0 6.4l73.6 76.8c3.2 3.2 0 9.6-3.2 9.6h-246.4c-3.2 0-6.4 3.2-6.4 6.4v48c0 3.2 3.2 6.4 6.4 6.4h252.8c6.4 0 6.4 6.4 3.2 9.6L812.8 352c-3.2 3.2-3.2 3.2 0 6.4l35.2 35.2c3.2 3.2 6.4 3.2 9.6 0l156.8-156.8-35.2-28.8zM870.4 16v-54.4c0-12.8-9.6-22.4-22.4-22.4h-672c-12.8 0-22.4 9.6-22.4 22.4V809.6c-3.2 12.8 6.4 22.4 19.2 22.4v3.2H614.4l252.8-252.8V460.8H928V576c0 16-6.4 35.2-19.2 48L656 876.8c-9.6 12.8-28.8 19.2-44.8 19.2H172.8C124.8 896 89.6 857.6 89.6 809.6v-851.2C89.6-89.6 128-128 176-128h672c44.8 0 86.4 38.4 86.4 83.2v54.4h-64z"  horiz-adv-x="1024" />

    
    <glyph glyph-name="xiayiye-bukedianji" unicode="&#59003;" d="M899.2 544h-252.8c-38.4 0-67.2 28.8-67.2 67.2V864H640v-252.8s0-6.4 6.4-6.4h252.8V544zM979.2 208l-124.8-128c-3.2-3.2-6.4-3.2-9.6 0l-35.2 35.2c-3.2 3.2-3.2 6.4 0 6.4l73.6 76.8c3.2 3.2 0 9.6-3.2 9.6h-246.4c-3.2 0-6.4 3.2-6.4 6.4v48c0 3.2 3.2 6.4 6.4 6.4h252.8c6.4 0 6.4 6.4 3.2 9.6L812.8 352c-3.2 3.2-3.2 3.2 0 6.4l35.2 35.2c3.2 3.2 6.4 3.2 9.6 0l156.8-156.8-35.2-28.8zM870.4 16v-54.4c0-12.8-9.6-22.4-22.4-22.4h-672c-12.8 0-22.4 9.6-22.4 22.4V809.6c-3.2 12.8 6.4 22.4 19.2 22.4v3.2H614.4l252.8-252.8V460.8H928V576c0 16-6.4 35.2-19.2 48L656 876.8c-9.6 12.8-28.8 19.2-44.8 19.2H172.8C124.8 896 89.6 857.6 89.6 809.6v-851.2C89.6-89.6 128-128 176-128h672c44.8 0 86.4 38.4 86.4 83.2v54.4h-64v6.4z"  horiz-adv-x="1024" />

    


  </font>
</defs>
</svg>
